<svg width="26" height="26" viewBox="0 0 26 26" fill="none" xmlns="http://www.w3.org/2000/svg">
    <g clip-path="url(#clip0_481_4034)">
        <path d="M21.0168 16.25C20.8726 16.5767 20.8296 16.9392 20.8933 17.2906C20.957 17.642 21.1246 17.9663 21.3743 18.2216L21.4393 18.2866C21.6408 18.4879 21.8006 18.7268 21.9096 18.9899C22.0187 19.2529 22.0748 19.5348 22.0748 19.8196C22.0748 20.1043 22.0187 20.3862 21.9096 20.6493C21.8006 20.9123 21.6408 21.1513 21.4393 21.3525C21.2381 21.5539 20.9991 21.7137 20.7361 21.8228C20.4731 21.9318 20.1911 21.9879 19.9064 21.9879C19.6217 21.9879 19.3397 21.9318 19.0767 21.8228C18.8137 21.7137 18.5747 21.5539 18.3735 21.3525L18.3085 21.2875C18.0532 21.0377 17.7289 20.8702 17.3775 20.8065C17.026 20.7428 16.6636 20.7858 16.3368 20.93C16.0164 21.0673 15.7431 21.2953 15.5507 21.586C15.3582 21.8766 15.2549 22.2172 15.2535 22.5658V22.75C15.2535 23.3246 15.0252 23.8757 14.6189 24.282C14.2126 24.6884 13.6615 24.9166 13.0868 24.9166C12.5122 24.9166 11.9611 24.6884 11.5548 24.282C11.1484 23.8757 10.9202 23.3246 10.9202 22.75V22.6525C10.9118 22.2939 10.7957 21.9461 10.587 21.6544C10.3784 21.3627 10.0868 21.1405 9.75016 21.0166C9.42341 20.8724 9.06095 20.8294 8.70953 20.8931C8.3581 20.9569 8.03381 21.1244 7.7785 21.3741L7.7135 21.4391C7.51227 21.6406 7.27331 21.8004 7.01028 21.9094C6.74725 22.0185 6.46531 22.0746 6.18058 22.0746C5.89585 22.0746 5.6139 22.0185 5.35088 21.9094C5.08785 21.8004 4.84889 21.6406 4.64766 21.4391C4.44621 21.2379 4.2864 20.999 4.17737 20.7359C4.06833 20.4729 4.01221 20.191 4.01221 19.9062C4.01221 19.6215 4.06833 19.3396 4.17737 19.0765C4.2864 18.8135 4.44621 18.5745 4.64766 18.3733L4.71266 18.3083C4.96241 18.053 5.12995 17.7287 5.19367 17.3773C5.25739 17.0259 5.21437 16.6634 5.07016 16.3366C4.93284 16.0162 4.70481 15.743 4.41417 15.5505C4.12352 15.358 3.78293 15.2547 3.43433 15.2533H3.25016C2.67553 15.2533 2.12443 15.025 1.7181 14.6187C1.31177 14.2124 1.0835 13.6613 1.0835 13.0866C1.0835 12.512 1.31177 11.9609 1.7181 11.5546C2.12443 11.1483 2.67553 10.92 3.25016 10.92H3.34766C3.70624 10.9116 4.054 10.7955 4.34574 10.5869C4.63747 10.3782 4.85969 10.0866 4.9835 9.74998C5.1277 9.42323 5.17072 9.06077 5.107 8.70934C5.04328 8.35791 4.87574 8.03363 4.626 7.77831L4.561 7.71331C4.35955 7.51209 4.19974 7.27313 4.0907 7.0101C3.98166 6.74707 3.92554 6.46513 3.92554 6.1804C3.92554 5.89566 3.98166 5.61372 4.0907 5.35069C4.19974 5.08766 4.35955 4.8487 4.561 4.64748C4.76222 4.44603 5.00118 4.28622 5.26421 4.17718C5.52724 4.06815 5.80918 4.01203 6.09391 4.01203C6.37865 4.01203 6.66059 4.06815 6.92362 4.17718C7.18665 4.28622 7.4256 4.44603 7.62683 4.64748L7.69183 4.71248C7.94715 4.96223 8.27143 5.12976 8.62286 5.19348C8.97429 5.25721 9.33675 5.21419 9.6635 5.06998H9.75016C10.0706 4.93265 10.3438 4.70463 10.5363 4.41398C10.7288 4.12334 10.8321 3.78275 10.8335 3.43415V3.24998C10.8335 2.67534 11.0618 2.12424 11.4681 1.71792C11.8744 1.31159 12.4255 1.08331 13.0002 1.08331C13.5748 1.08331 14.1259 1.31159 14.5322 1.71792C14.9386 2.12424 15.1668 2.67534 15.1668 3.24998V3.34748C15.1682 3.69608 15.2715 4.03667 15.464 4.32732C15.6565 4.61797 15.9297 4.84599 16.2502 4.98331C16.5769 5.12752 16.9394 5.17054 17.2908 5.10682C17.6422 5.0431 17.9665 4.87556 18.2218 4.62581L18.2868 4.56081C18.4881 4.35936 18.727 4.19955 18.99 4.09052C19.2531 3.98148 19.535 3.92536 19.8197 3.92536C20.1045 3.92536 20.3864 3.98148 20.6495 4.09052C20.9125 4.19955 21.1514 4.35936 21.3527 4.56081C21.5541 4.76204 21.7139 5.001 21.823 5.26403C21.932 5.52705 21.9881 5.809 21.9881 6.09373C21.9881 6.37846 21.932 6.6604 21.823 6.92343C21.7139 7.18646 21.5541 7.42542 21.3527 7.62665L21.2877 7.69165C21.0379 7.94697 20.8704 8.27125 20.8067 8.62268C20.7429 8.9741 20.786 9.33656 20.9302 9.66331V9.74998C21.0675 10.0704 21.2955 10.3437 21.5862 10.5361C21.8768 10.7286 22.2174 10.8319 22.566 10.8333H22.7502C23.3248 10.8333 23.8759 11.0616 24.2822 11.4679C24.6886 11.8742 24.9168 12.4253 24.9168 13C24.9168 13.5746 24.6886 14.1257 24.2822 14.532C23.8759 14.9384 23.3248 15.1666 22.7502 15.1666H22.6527C22.3041 15.168 21.9635 15.2713 21.6728 15.4638C21.3822 15.6563 21.1542 15.9296 21.0168 16.25Z" stroke="#142893" stroke-width="2" stroke-linecap="round" stroke-linejoin="round"/>
        <path d="M13 16.25C14.7949 16.25 16.25 14.7949 16.25 13C16.25 11.2051 14.7949 9.75 13 9.75C11.2051 9.75 9.75 11.2051 9.75 13C9.75 14.7949 11.2051 16.25 13 16.25Z" stroke="#142893" stroke-width="2" stroke-linecap="round" stroke-linejoin="round"/>
    </g>
    <defs>
        <clipPath id="clip0_481_4034">
            <rect width="26" height="26" fill="white"/>
        </clipPath>
    </defs>
</svg>
