<svg width="464" height="274" viewBox="0 0 464 274" fill="none" xmlns="http://www.w3.org/2000/svg">
    <g clip-path="url(#clip0_564_3194)">
        <path d="M520 -15H-10V287H520V-15Z" fill="#63BAFF"/>
        <path d="M448 -15C287.871 68.4381 259.74 77.5522 222.937 77.9837C138.141 78.9952 102.467 32.781 26.9462 -3.31471C18.0312 -7.57291 9.04555 -11.4598 0 -15H448Z" fill="#DD77FF"/>
        <path d="M-10 213C11.5623 217.423 38.6731 242.368 82 287H-10" fill="#67F6FF"/>
        <path d="M520 288H336C354.002 247.247 375.376 208.87 411.063 202.815C449.164 196.355 485.764 229.766 501.857 251.647C509.974 262.68 515.935 274.925 520 288Z" fill="#057BF8"/>
        <path d="M232.5 254C297.393 254 350 201.393 350 136.5C350 71.6065 297.393 19 232.5 19C167.607 19 115 71.6065 115 136.5C115 201.393 167.607 254 232.5 254Z" fill="url(#paint0_linear_564_3194)"/>
        <path d="M232 227C282.258 227 323 186.482 323 136.5C323 86.5182 282.258 46 232 46C181.742 46 141 86.5182 141 136.5C141 186.482 181.742 227 232 227Z" fill="#3E70D6"/>
        <path d="M73.5 58C78.1944 58 82 54.1944 82 49.5C82 44.8056 78.1944 41 73.5 41C68.8056 41 65 44.8056 65 49.5C65 54.1944 68.8056 58 73.5 58Z" fill="#FFBA35"/>
        <path d="M88.5 99C92.0898 99 95 96.0898 95 92.5C95 88.9101 92.0898 86 88.5 86C84.9101 86 82 88.9101 82 92.5C82 96.0898 84.9101 99 88.5 99Z" fill="#142893"/>
        <path d="M183.5 226C185.985 226 188 223.761 188 221C188 218.239 185.985 216 183.5 216C181.015 216 179 218.239 179 221C179 223.761 181.015 226 183.5 226Z" fill="#83A2F3"/>
        <path d="M131.5 245C133.433 245 135 243.433 135 241.5C135 239.567 133.433 238 131.5 238C129.567 238 128 239.567 128 241.5C128 243.433 129.567 245 131.5 245Z" fill="black"/>
        <path d="M402 156C407.523 156 412 151.523 412 146C412 140.477 407.523 136 402 136C396.477 136 392 140.477 392 146C392 151.523 396.477 156 402 156Z" fill="black"/>
        <path d="M352.5 30C354.985 30 357 27.9853 357 25.5C357 23.0147 354.985 21 352.5 21C350.015 21 348 23.0147 348 25.5C348 27.9853 350.015 30 352.5 30Z" fill="#142893"/>
        <path d="M267.38 49.6713H197.259C192.106 49.6713 187.93 53.8479 187.93 59.0001V215.666C187.93 220.818 192.106 224.995 197.259 224.995H267.38C272.532 224.995 276.709 220.818 276.709 215.666V59.0001C276.709 53.8479 272.532 49.6713 267.38 49.6713Z" fill="white"/>
        <path d="M267.378 226.669H197.259C191.192 226.669 186.256 221.733 186.256 215.666V59.0036C186.256 52.9359 191.192 48 197.259 48H267.378C273.445 48 278.381 52.9359 278.381 59.0036V215.666C278.381 221.733 273.445 226.669 267.378 226.669ZM197.259 51.3458C193.039 51.3458 189.605 54.7798 189.605 59V215.662C189.605 219.882 193.039 223.316 197.259 223.316H267.378C271.598 223.316 275.032 219.882 275.032 215.662V59.0036C275.032 54.7834 271.598 51.3494 267.378 51.3494H197.259V51.3458Z" fill="black"/>
        <path d="M262.349 198.193H202.568C201.499 198.193 200.633 199.059 200.633 200.128V211.89C200.633 212.959 201.499 213.825 202.568 213.825H262.349C263.418 213.825 264.285 212.959 264.285 211.89V200.128C264.285 199.059 263.418 198.193 262.349 198.193Z" fill="#142893"/>
        <path d="M278.906 73.1239H277.584C277.333 73.1239 277.129 73.3275 277.129 73.5787V81.6031C277.129 81.8543 277.333 82.0579 277.584 82.0579H278.906C279.157 82.0579 279.361 81.8543 279.361 81.6031V73.5787C279.361 73.3275 279.157 73.1239 278.906 73.1239Z" fill="black"/>
        <path opacity="0.58" d="M204.539 57.5934V55.7107C204.539 55.4595 204.335 55.2559 204.084 55.2559H196.06C195.809 55.2559 195.605 55.4595 195.605 55.7107V57.5934C195.605 57.8446 195.809 58.0482 196.06 58.0482H204.084C204.335 58.0482 204.539 57.8446 204.539 57.5934Z" fill="#B9D3F9"/>
        <path opacity="0.58" d="M269.309 57.5934V55.7107C269.309 55.4595 269.105 55.2559 268.854 55.2559H260.829C260.578 55.2559 260.375 55.4595 260.375 55.7107V57.5934C260.375 57.8446 260.578 58.0482 260.829 58.0482H268.854C269.105 58.0482 269.309 57.8446 269.309 57.5934Z" fill="#B9D3F9"/>
        <path d="M278.906 84.8464H277.584C277.333 84.8464 277.129 85.0501 277.129 85.3012V96.675C277.129 96.9262 277.333 97.1298 277.584 97.1298H278.906C279.157 97.1298 279.361 96.9262 279.361 96.675V85.3012C279.361 85.0501 279.157 84.8464 278.906 84.8464Z" fill="black"/>
        <path d="M186.777 84.8464H185.455C185.204 84.8464 185 85.0501 185 85.3012V96.675C185 96.9262 185.204 97.1298 185.455 97.1298H186.777C187.028 97.1298 187.232 96.9262 187.232 96.675V85.3012C187.232 85.0501 187.028 84.8464 186.777 84.8464Z" fill="black"/>
        <path opacity="0.58" d="M258.02 120.342V171.175C258.02 174.56 254.635 177.306 251.497 177.585H189.396L188.363 114.211H250.464C254.631 114.211 258.016 116.958 258.016 120.342H258.02Z" fill="#B9D3F9"/>
        <path d="M179.373 114.493H259.617C262.582 114.493 264.987 116.901 264.987 119.863V164.399C264.987 167.364 262.579 169.768 259.617 169.768H179.373C176.408 169.768 174.004 167.36 174.004 164.399V119.863C174.004 116.898 176.412 114.493 179.373 114.493Z" fill="url(#paint1_linear_564_3194)"/>
        <path d="M264.986 126.234H174V132.594H264.986V126.234Z" fill="white"/>
        <path d="M216.811 151.181H182.556C181.614 151.181 180.85 151.945 180.85 152.888V155.835C180.85 156.777 181.614 157.541 182.556 157.541H216.811C217.754 157.541 218.518 156.777 218.518 155.835V152.888C218.518 151.945 217.754 151.181 216.811 151.181Z" fill="white"/>
        <path d="M254.963 151.181H239.788C238.846 151.181 238.082 151.945 238.082 152.888V155.835C238.082 156.777 238.846 157.541 239.788 157.541H254.963C255.905 157.541 256.669 156.777 256.669 155.835V152.888C256.669 151.945 255.905 151.181 254.963 151.181Z" fill="white"/>
        <path d="M235.672 87.6582C235.675 89.1883 234.406 90.4293 232.841 90.4293H227.993C227.365 90.4293 226.762 90.1755 226.332 89.7312L221.072 84.2947C220.889 84.0902 220.744 83.9104 220.645 83.7764C220.007 82.9197 219.997 82.5178 220.011 82.345C220.011 82.3344 220.011 82.3239 220.011 82.3203C220.011 82.3203 220.011 82.3133 220.011 82.3098C220.071 82.0312 220.169 81.5799 220.194 81.453C220.205 81.4037 220.247 81.3684 220.296 81.3684H229.851C230.263 81.3684 230.655 81.5341 230.937 81.8267L234.981 86.0046C235.414 86.4524 235.665 87.0447 235.668 87.6582H235.672Z" fill="url(#paint2_linear_564_3194)"/>
        <path d="M241.75 68.3481H225.606C225.56 68.3481 225.511 68.3481 225.465 68.3481C225.461 68.3481 225.458 68.3481 225.451 68.3481C225.408 68.3481 225.366 68.3516 225.324 68.3552C225.317 68.3552 225.31 68.3552 225.303 68.3552C225.264 68.3587 225.225 68.3622 225.183 68.3693C225.176 68.3693 225.169 68.3693 225.162 68.3693C225.123 68.3763 225.084 68.3798 225.045 68.3869C225.038 68.3869 225.031 68.3869 225.021 68.3904C224.982 68.3975 224.947 68.4045 224.908 68.4116C224.901 68.4116 224.89 68.4151 224.883 68.4186C224.848 68.4257 224.809 68.4363 224.774 68.4433C224.767 68.4433 224.76 68.4468 224.749 68.4504C224.714 68.4609 224.679 68.4715 224.64 68.4821C224.633 68.4821 224.622 68.4891 224.615 68.4891C224.58 68.4997 224.545 68.5103 224.509 68.5244C224.502 68.5244 224.492 68.5315 224.485 68.535C224.449 68.5456 224.414 68.5597 224.382 68.5738C224.375 68.5738 224.365 68.5808 224.358 68.5843C224.322 68.5984 224.291 68.6125 224.259 68.6266C224.252 68.6302 224.241 68.6337 224.234 68.6372C224.203 68.6513 224.171 68.669 224.136 68.6831C224.129 68.6866 224.118 68.6901 224.111 68.6972C224.079 68.7148 224.047 68.7289 224.016 68.7465C224.009 68.75 223.998 68.7571 223.991 68.7606C223.959 68.7782 223.931 68.7959 223.899 68.8135C223.889 68.8206 223.882 68.8241 223.875 68.8311C223.847 68.8488 223.818 68.8664 223.79 68.8875C223.779 68.8946 223.772 68.9016 223.762 68.9052C223.734 68.9228 223.705 68.944 223.681 68.9616C223.67 68.9686 223.663 68.9757 223.653 68.9827C223.628 69.0004 223.6 69.0215 223.575 69.0427C223.564 69.0497 223.557 69.0568 223.547 69.0673C223.522 69.0885 223.497 69.1061 223.473 69.1273C223.462 69.1343 223.452 69.1449 223.445 69.152C223.42 69.1731 223.399 69.1943 223.374 69.2154C223.363 69.226 223.353 69.2331 223.342 69.2436C223.321 69.2648 223.3 69.2859 223.279 69.3071C223.268 69.3177 223.258 69.3282 223.247 69.3388C223.226 69.36 223.208 69.3811 223.187 69.4023C223.177 69.4129 223.166 69.427 223.155 69.4375C223.138 69.4587 223.117 69.4799 223.099 69.501C223.088 69.5151 223.078 69.5257 223.067 69.5398C223.05 69.5609 223.032 69.5821 223.018 69.6032C223.007 69.6174 222.997 69.6315 222.986 69.6456C222.972 69.6667 222.955 69.6879 222.94 69.709C222.93 69.7231 222.919 69.7408 222.909 69.7549C222.895 69.776 222.88 69.7972 222.866 69.8183C222.856 69.8359 222.845 69.85 222.835 69.8677C222.821 69.8888 222.81 69.91 222.796 69.9311C222.785 69.9488 222.775 69.9664 222.764 69.984C222.754 70.0052 222.743 70.0263 222.729 70.044C222.718 70.0616 222.708 70.0827 222.697 70.1039C222.687 70.125 222.676 70.1427 222.669 70.1638C222.658 70.185 222.648 70.2061 222.641 70.2273C222.63 70.2484 222.623 70.2661 222.616 70.2872C222.605 70.3084 222.598 70.3295 222.588 70.3542C222.581 70.3718 222.574 70.393 222.567 70.4106C222.56 70.4353 222.549 70.4565 222.542 70.4811C222.535 70.4988 222.528 70.5199 222.524 70.5375C222.517 70.5622 222.51 70.5869 222.503 70.6116C222.496 70.6292 222.493 70.6504 222.486 70.668C222.479 70.6927 222.471 70.7174 222.464 70.7456C222.464 70.7526 222.461 70.7597 222.457 70.7667C222.45 70.7949 222.443 70.8196 222.44 70.8478V70.8654L222.253 71.7257C222.253 71.7257 222.253 71.7257 222.253 71.7292C222.387 71.2321 222.852 70.8654 223.402 70.8654H239.712C240.371 70.8654 240.904 71.3872 240.904 72.0289C240.904 72.6706 240.371 73.1924 239.712 73.1924H223.973C222.789 73.1924 221.766 74.0033 221.527 75.135L220.187 81.4424L220 82.3167C220.134 81.8196 220.599 81.453 221.149 81.453H223.459H237.716C239.655 81.453 241.33 80.1238 241.725 78.2693L243.368 70.5411C243.41 70.3472 243.428 70.1497 243.424 69.9558C243.414 69.0603 242.656 68.3411 241.736 68.3411L241.75 68.3481Z" fill="#142893"/>
    </g>
    <defs>
        <linearGradient id="paint0_linear_564_3194" x1="326.752" y1="12.5978" x2="71.4246" y2="150.497" gradientUnits="userSpaceOnUse">
            <stop stop-color="#1C35BD"/>
            <stop offset="1" stop-color="#13268A"/>
        </linearGradient>
        <linearGradient id="paint1_linear_564_3194" x1="255.986" y1="112.987" x2="184.664" y2="176.392" gradientUnits="userSpaceOnUse">
            <stop stop-color="#1C35BD"/>
            <stop offset="1" stop-color="#13268A"/>
        </linearGradient>
        <linearGradient id="paint2_linear_564_3194" x1="228.797" y1="90.32" x2="227.136" y2="81.044" gradientUnits="userSpaceOnUse">
            <stop stop-color="#142893"/>
            <stop offset="1" stop-color="#001272"/>
        </linearGradient>
        <clipPath id="clip0_564_3194">
            <rect width="464" height="274" rx="16" fill="white"/>
        </clipPath>
    </defs>
</svg>
