<svg width="464" height="274" viewBox="0 0 464 274" fill="none" xmlns="http://www.w3.org/2000/svg">
    <g clip-path="url(#clip0_564_3283)">
        <path d="M543 -10H-33V276H543V-10Z" fill="url(#paint0_linear_564_3283)"/>
        <path d="M444 -10C292.449 68.9522 265.825 77.5763 230.994 77.9846C150.741 78.9417 116.978 35.2121 45.5027 1.05705C37.0652 -2.97221 28.561 -6.65009 20 -10H444Z" fill="#7044ED"/>
        <path d="M-18 206C2.15604 210.184 27.4988 233.781 68 276H-18" fill="#7044ED"/>
        <path d="M496 283H321C338.122 244.617 358.45 208.47 392.392 202.767C428.629 196.683 463.439 228.151 478.744 248.761C486.464 259.152 492.133 270.685 496 283Z" fill="#67F6FF"/>
        <path d="M353.112 54H111.888C105.323 54 100 59.3293 100 65.9033V219.097C100 225.671 105.323 231 111.888 231H353.112C359.677 231 365 225.671 365 219.097V65.9033C365 59.3293 359.677 54 353.112 54Z" fill="url(#paint1_linear_564_3283)"/>
        <path d="M232.238 89C251.292 89 266.738 73.33 266.738 54C266.738 34.67 251.292 19 232.238 19C213.184 19 197.738 34.67 197.738 54C197.738 73.33 213.184 89 232.238 89Z" fill="url(#paint2_linear_564_3283)"/>
        <path d="M232.738 82C248.202 82 260.738 69.464 260.738 54C260.738 38.536 248.202 26 232.738 26C217.274 26 204.738 38.536 204.738 54C204.738 69.464 217.274 82 232.738 82Z" fill="white"/>
        <path d="M116.898 109.817H81.1824C78.3202 109.817 76 112.138 76 115V159.03C76 161.892 78.3202 164.212 81.1824 164.212H116.898C119.76 164.212 122.08 161.892 122.08 159.03V115C122.08 112.138 119.76 109.817 116.898 109.817Z" fill="url(#paint3_linear_564_3283)"/>
        <path d="M112.674 124.49H87.0227C86.3662 124.49 85.834 125.021 85.834 125.677C85.834 126.332 86.3662 126.864 87.0227 126.864H112.674C113.331 126.864 113.863 126.332 113.863 125.677C113.863 125.021 113.331 124.49 112.674 124.49Z" fill="white"/>
        <path d="M112.674 136.367H87.0227C86.3662 136.367 85.834 136.898 85.834 137.554C85.834 138.21 86.3662 138.741 87.0227 138.741H112.674C113.331 138.741 113.863 138.21 113.863 137.554C113.863 136.898 113.331 136.367 112.674 136.367Z" fill="white"/>
        <path d="M112.674 148.244H87.0227C86.3662 148.244 85.834 148.776 85.834 149.431C85.834 150.087 86.3662 150.619 87.0227 150.619H112.674C113.331 150.619 113.863 150.087 113.863 149.431C113.863 148.776 113.331 148.244 112.674 148.244Z" fill="white"/>
        <path d="M250.13 204.315H214.415C211.553 204.315 209.232 206.635 209.232 209.498V253.528C209.232 256.39 211.553 258.71 214.415 258.71H250.13C252.992 258.71 255.313 256.39 255.313 253.528V209.498C255.313 206.635 252.992 204.315 250.13 204.315Z" fill="url(#paint4_linear_564_3283)"/>
        <path d="M245.907 218.987H220.255C219.599 218.987 219.066 219.519 219.066 220.174C219.066 220.83 219.599 221.362 220.255 221.362H245.907C246.563 221.362 247.095 220.83 247.095 220.174C247.095 219.519 246.563 218.987 245.907 218.987Z" fill="white"/>
        <path d="M245.907 230.865H220.255C219.599 230.865 219.066 231.396 219.066 232.052C219.066 232.707 219.599 233.239 220.255 233.239H245.907C246.563 233.239 247.095 232.707 247.095 232.052C247.095 231.396 246.563 230.865 245.907 230.865Z" fill="white"/>
        <path d="M245.907 242.742H220.255C219.599 242.742 219.066 243.274 219.066 243.929C219.066 244.585 219.599 245.116 220.255 245.116H245.907C246.563 245.116 247.095 244.585 247.095 243.929C247.095 243.274 246.563 242.742 245.907 242.742Z" fill="white"/>
        <path d="M383.029 109.817H347.313C344.451 109.817 342.131 112.138 342.131 115V159.03C342.131 161.892 344.451 164.212 347.313 164.212H383.029C385.891 164.212 388.211 161.892 388.211 159.03V115C388.211 112.138 385.891 109.817 383.029 109.817Z" fill="url(#paint5_linear_564_3283)"/>
        <path d="M378.805 124.49H353.154C352.497 124.49 351.965 125.021 351.965 125.677C351.965 126.332 352.497 126.864 353.154 126.864H378.805C379.461 126.864 379.994 126.332 379.994 125.677C379.994 125.021 379.461 124.49 378.805 124.49Z" fill="white"/>
        <path d="M378.805 136.367H353.154C352.497 136.367 351.965 136.898 351.965 137.554C351.965 138.21 352.497 138.741 353.154 138.741H378.805C379.461 138.741 379.994 138.21 379.994 137.554C379.994 136.898 379.461 136.367 378.805 136.367Z" fill="white"/>
        <path d="M378.805 148.244H353.154C352.497 148.244 351.965 148.776 351.965 149.431C351.965 150.087 352.497 150.619 353.154 150.619H378.805C379.461 150.619 379.994 150.087 379.994 149.431C379.994 148.776 379.461 148.244 378.805 148.244Z" fill="white"/>
        <path d="M237.865 64.9225C237.872 66.9761 236.169 68.6423 234.065 68.6423H227.56C226.719 68.6423 225.911 68.3017 225.333 67.704L218.277 60.408C218.03 60.1342 217.84 59.8904 217.706 59.7134C216.848 58.5648 216.838 58.0238 216.855 57.7901C216.855 57.7734 216.855 57.7634 216.855 57.7533C216.855 57.7533 216.855 57.7433 216.855 57.74C216.935 57.366 217.069 56.7583 217.099 56.5913C217.112 56.5245 217.169 56.4778 217.239 56.4778H230.058C230.609 56.4778 231.137 56.6982 231.514 57.0922L236.937 62.6986C237.518 63.2997 237.855 64.0911 237.858 64.9192L237.865 64.9225Z" fill="url(#paint6_linear_564_3283)"/>
        <path d="M246.022 39.0105H224.365C224.301 39.0105 224.238 39.0105 224.174 39.0138C224.168 39.0138 224.164 39.0138 224.158 39.0138C224.101 39.0138 224.044 39.0205 223.987 39.0238C223.977 39.0238 223.971 39.0238 223.961 39.0238C223.907 39.0272 223.854 39.0338 223.8 39.0405C223.79 39.0405 223.78 39.0405 223.77 39.0439C223.72 39.0505 223.667 39.0572 223.617 39.0672C223.607 39.0672 223.597 39.0706 223.587 39.0739C223.537 39.0839 223.486 39.0906 223.436 39.104C223.426 39.104 223.416 39.1073 223.403 39.1106C223.353 39.1207 223.303 39.134 223.256 39.144C223.246 39.144 223.236 39.1507 223.223 39.154C223.173 39.1674 223.126 39.1808 223.079 39.1941C223.069 39.1941 223.059 39.2008 223.046 39.2041C222.999 39.2175 222.952 39.2342 222.905 39.2509C222.895 39.2542 222.885 39.2576 222.872 39.2642C222.825 39.2809 222.779 39.2976 222.735 39.3177C222.725 39.321 222.715 39.3277 222.702 39.331C222.658 39.3477 222.612 39.3677 222.568 39.3878C222.558 39.3911 222.545 39.3978 222.535 39.4045C222.491 39.4245 222.448 39.4446 222.405 39.4646C222.395 39.4713 222.381 39.4746 222.371 39.4813C222.328 39.5013 222.288 39.5247 222.244 39.5481C222.234 39.5547 222.221 39.5614 222.211 39.5681C222.171 39.5915 222.131 39.6148 222.091 39.6382C222.077 39.6449 222.067 39.6516 222.054 39.6616C222.014 39.685 221.977 39.7083 221.937 39.7351C221.924 39.7417 221.914 39.7518 221.9 39.7584C221.864 39.7851 221.827 39.8085 221.79 39.8352C221.777 39.8453 221.767 39.8519 221.753 39.8619C221.717 39.8887 221.683 39.9154 221.65 39.9421C221.637 39.9521 221.623 39.9621 221.61 39.9721C221.576 39.9988 221.543 40.0256 221.51 40.0556C221.496 40.0656 221.483 40.079 221.47 40.089C221.44 40.1157 221.406 40.1424 221.376 40.1725C221.363 40.1858 221.349 40.1992 221.336 40.2126C221.306 40.2393 221.279 40.2693 221.249 40.296C221.236 40.3094 221.223 40.3261 221.209 40.3394C221.182 40.3662 221.156 40.3962 221.129 40.4263C221.116 40.443 221.102 40.4563 221.086 40.473C221.059 40.4997 221.036 40.5298 221.012 40.5598C220.999 40.5765 220.982 40.5932 220.969 40.6133C220.945 40.64 220.922 40.67 220.902 40.7001C220.889 40.7201 220.872 40.7368 220.859 40.7568C220.839 40.7836 220.818 40.8136 220.795 40.8437C220.782 40.8637 220.765 40.8837 220.752 40.9071C220.732 40.9338 220.715 40.9639 220.695 40.9906C220.682 41.014 220.665 41.034 220.652 41.0574C220.635 41.0841 220.618 41.1141 220.601 41.1408C220.588 41.1642 220.575 41.1876 220.561 41.2143C220.545 41.241 220.531 41.2677 220.518 41.2978C220.505 41.3245 220.491 41.3512 220.478 41.3746C220.465 41.4013 220.451 41.428 220.438 41.4547C220.424 41.4814 220.411 41.5115 220.398 41.5382C220.384 41.5649 220.374 41.5916 220.364 41.6183C220.351 41.6484 220.341 41.6784 220.328 41.7085C220.318 41.7352 220.308 41.7619 220.298 41.7853C220.288 41.8154 220.274 41.8487 220.264 41.8788C220.254 41.9055 220.247 41.9289 220.237 41.9556C220.227 41.989 220.217 42.0224 220.207 42.0524C220.201 42.0791 220.194 42.1025 220.187 42.1292C220.177 42.1626 220.167 42.1994 220.161 42.2327C220.161 42.2428 220.154 42.2528 220.154 42.2595C220.144 42.2962 220.137 42.3329 220.127 42.3697L220.121 42.393L219.877 43.545C219.877 43.545 219.877 43.5484 219.877 43.5517C220.057 42.8839 220.682 42.393 221.42 42.393H243.301C244.183 42.393 244.9 43.0909 244.9 43.9524C244.9 44.8139 244.186 45.5118 243.301 45.5118H222.184C220.595 45.5118 219.226 46.6004 218.902 48.1163L217.102 56.5777L216.852 57.7531C216.852 57.7531 216.852 57.7531 216.852 57.7565C217.032 57.0886 217.656 56.5978 218.394 56.5978H221.493H240.623C243.224 56.5978 245.471 54.8147 245.999 52.327L248.203 41.9589C248.256 41.6985 248.283 41.4347 248.28 41.1709C248.263 39.9688 247.248 39.0038 246.012 39.0038L246.022 39.0105Z" fill="#142893"/>
        <path d="M232.106 98.7013L230.236 99.4192" stroke="#00C7D0" stroke-width="2" stroke-miterlimit="10"/>
        <path d="M226.516 100.842L139.137 134.293" stroke="#00C7D0" stroke-width="2" stroke-miterlimit="10" stroke-linecap="round" stroke-dasharray="4 4"/>
        <path d="M137.278 135.005L135.404 135.723" stroke="#00C7D0" stroke-width="2" stroke-miterlimit="10"/>
        <path d="M135.124 132.263L130.93 137.436L137.504 138.484L135.124 132.263Z" fill="#00C7D0"/>
        <path d="M232.105 98.7014L233.975 99.4193" stroke="#00C7D0" stroke-width="2" stroke-miterlimit="10" stroke-linecap="round" stroke-dasharray="4 4"/>
        <path d="M237.695 100.842L325.074 134.293" stroke="#00C7D0" stroke-width="2" stroke-miterlimit="10" stroke-linecap="round" stroke-dasharray="4 4"/>
        <path d="M326.934 135.005L328.807 135.723" stroke="#00C7D0" stroke-width="2" stroke-miterlimit="10" stroke-linecap="round" stroke-dasharray="4 4"/>
        <path d="M326.707 138.484L333.282 137.436L329.088 132.263L326.707 138.484Z" fill="#00C7D0"/>
        <path d="M232.107 98.7014V100.705" stroke="#00C7D0" stroke-width="2" stroke-miterlimit="10"/>
        <path d="M232.107 104.896V186.645" stroke="#00C7D0" stroke-width="2" stroke-miterlimit="10" stroke-linecap="round" stroke-dasharray="4 4"/>
        <path d="M232.107 188.742V190.745" stroke="#00C7D0" stroke-width="2" stroke-miterlimit="10"/>
        <path d="M228.777 189.77L232.106 195.537L235.436 189.77H228.777Z" fill="#00C7D0"/>
        <path d="M232.106 102.875C234.411 102.875 236.28 101.006 236.28 98.7013C236.28 96.3961 234.411 94.5273 232.106 94.5273C229.8 94.5273 227.932 96.3961 227.932 98.7013C227.932 101.006 229.8 102.875 232.106 102.875Z" stroke="#00C7D0" stroke-width="2" stroke-miterlimit="10"/>
        <path d="M232.106 102.541C234.226 102.541 235.946 100.822 235.946 98.7012C235.946 96.5804 234.226 94.8612 232.106 94.8612C229.985 94.8612 228.266 96.5804 228.266 98.7012C228.266 100.822 229.985 102.541 232.106 102.541Z" fill="white"/>
        <path d="M423 48C426.314 48 429 45.3137 429 42C429 38.6863 426.314 36 423 36C419.686 36 417 38.6863 417 42C417 45.3137 419.686 48 423 48Z" fill="#B018C9"/>
        <circle cx="63.5" cy="210.5" r="4.5" fill="#FFBA35"/>
        <circle cx="42" cy="70" r="7" fill="#5119BA"/>
    </g>
    <defs>
        <linearGradient id="paint0_linear_564_3283" x1="255" y1="-10" x2="255" y2="276" gradientUnits="userSpaceOnUse">
            <stop stop-color="#62BDFF"/>
            <stop offset="1" stop-color="#7B9BFF"/>
        </linearGradient>
        <linearGradient id="paint1_linear_564_3283" x1="338.785" y1="49.1779" x2="113.91" y2="231.014" gradientUnits="userSpaceOnUse">
            <stop stop-color="#1C35BD"/>
            <stop offset="1" stop-color="#13268A"/>
        </linearGradient>
        <linearGradient id="paint2_linear_564_3283" x1="232.238" y1="19" x2="232.238" y2="89" gradientUnits="userSpaceOnUse">
            <stop stop-color="#057BF8"/>
            <stop offset="1" stop-color="#0549F8"/>
        </linearGradient>
        <linearGradient id="paint3_linear_564_3283" x1="99.0402" y1="109.817" x2="99.0402" y2="164.212" gradientUnits="userSpaceOnUse">
            <stop stop-color="#057BF8"/>
            <stop offset="1" stop-color="#0549F8"/>
        </linearGradient>
        <linearGradient id="paint4_linear_564_3283" x1="232.273" y1="204.315" x2="232.273" y2="258.71" gradientUnits="userSpaceOnUse">
            <stop stop-color="#057BF8"/>
            <stop offset="1" stop-color="#0549F8"/>
        </linearGradient>
        <linearGradient id="paint5_linear_564_3283" x1="365.171" y1="109.817" x2="365.171" y2="164.212" gradientUnits="userSpaceOnUse">
            <stop stop-color="#057BF8"/>
            <stop offset="1" stop-color="#0549F8"/>
        </linearGradient>
        <linearGradient id="paint6_linear_564_3283" x1="228.639" y1="68.4921" x2="226.415" y2="56.0437" gradientUnits="userSpaceOnUse">
            <stop stop-color="#142893"/>
            <stop offset="1" stop-color="#001272"/>
        </linearGradient>
        <clipPath id="clip0_564_3283">
            <rect width="464" height="274" rx="16" fill="white"/>
        </clipPath>
    </defs>
</svg>
