<svg width="968" height="410" viewBox="0 0 968 410" fill="none" xmlns="http://www.w3.org/2000/svg">
    <g clip-path="url(#clip0_564_3156)">
        <rect width="968" height="410" rx="16" fill="#3A3A3A"/>
        <path d="M978 0H-12V410H978V0Z" fill="url(#paint0_linear_564_3156)"/>
        <path d="M1041 -14V101.596C1031.94 105.127 1022.6 108.754 1012.97 112.476C765.152 208.399 722.625 217.141 668.826 211.777C545.033 199.46 500.5 126.293 396.232 61.4017C346.343 30.3637 293.735 8.0286 240.324 -7.83838C238.872 -9.88161 237.433 -11.9312 236 -14H1041Z" fill="#057BF8"/>
        <path d="M398.699 289.656C374.922 337.756 193.324 311.744 -3 242.26V0H134.557C251.712 156.932 423.576 239.372 398.699 289.656Z" fill="#67F6FF"/>
        <path d="M981.622 204.036V411.657H946.808C844.78 319.433 755.823 261.163 775.836 220.717C792.164 187.728 872.033 184.579 981.622 204.036Z" fill="#67F6FF"/>
        <path d="M0 300C32.4324 306.758 73.2105 344.871 138.38 413.064H0" fill="#057BF8"/>
        <path d="M862.879 412.488H584C611.285 351.128 643.68 293.344 697.77 284.227C755.517 274.501 810.99 324.806 835.381 357.752C847.683 374.364 856.717 392.801 862.879 412.488Z" fill="#057BF8"/>
        <path d="M592.452 321.417L397.295 354.799C386.809 356.593 376.819 349.346 374.98 338.617L353.589 213.629C351.661 202.369 358.704 191.611 369.594 189.167L562.419 145.931C572.905 144.136 582.895 151.384 584.734 162.113L608.117 298.739C609.952 309.468 602.943 319.622 592.452 321.417Z" fill="url(#paint1_linear_564_3156)" stroke="#0A1A72" stroke-width="2" stroke-miterlimit="10"/>
        <path d="M494.801 196.965C514.267 196.965 530.047 181.189 530.047 161.729C530.047 142.269 514.267 126.493 494.801 126.493C475.335 126.493 459.555 142.269 459.555 161.729C459.555 181.189 475.335 196.965 494.801 196.965Z" fill="url(#paint2_linear_564_3156)" stroke="#0A1A72" stroke-width="2" stroke-miterlimit="10"/>
        <path d="M494.799 189.083C509.911 189.083 522.161 176.836 522.161 161.729C522.161 146.622 509.911 134.375 494.799 134.375C479.688 134.375 467.438 146.622 467.438 161.729C467.438 176.836 479.688 189.083 494.799 189.083Z" fill="white"/>
        <path d="M521.773 157.112C524.365 172.606 515.049 186.339 499.502 189.171C484.53 191.846 469.804 181.427 467.35 166.42C463.38 141.899 490.496 124.826 510.898 138.997C516.795 143.438 520.479 149.889 521.778 157.112H521.773ZM521.773 157.112C519.963 146.526 511.114 137.881 500.751 135.531C482.135 131.297 465.092 147.44 468.319 166.258C471.54 185.075 492.97 194.634 509.127 184.456C518.109 178.796 523.583 167.698 521.778 157.117L521.773 157.112Z" fill="url(#paint3_linear_564_3156)"/>
        <path d="M448.138 126.971C463.377 126.971 475.731 114.621 475.731 99.3858C475.731 84.1512 463.377 71.801 448.138 71.801C432.899 71.801 420.545 84.1512 420.545 99.3858C420.545 114.621 432.899 126.971 448.138 126.971Z" fill="url(#paint4_linear_564_3156)" stroke="#0A1A72" stroke-width="2" stroke-miterlimit="10"/>
        <path d="M448.137 120.8C459.967 120.8 469.557 111.212 469.557 99.3858C469.557 87.5592 459.967 77.9719 448.137 77.9719C436.307 77.9719 426.717 87.5592 426.717 99.3858C426.717 111.212 436.307 120.8 448.137 120.8Z" fill="white"/>
        <path d="M469.253 95.777C471.294 108.06 464.167 118.681 451.832 120.982C440.052 123.086 428.469 114.89 426.536 103.084C423.413 83.7891 444.744 70.3606 460.798 81.5076C463.026 83.2433 465.018 85.4314 466.415 87.8801C467.802 90.2895 468.742 93.048 469.253 95.7819V95.777ZM469.253 95.777C467.832 87.5064 460.828 80.8438 452.771 78.9851C438.291 75.676 424.982 88.2833 427.505 102.917C429.989 117.56 446.731 125.029 459.288 117.093C466.263 112.662 470.65 104.043 469.248 95.777H469.253Z" fill="url(#paint5_linear_564_3156)"/>
        <path d="M499.187 77.7111C509.327 77.7111 517.548 69.493 517.548 59.3555C517.548 49.2181 509.327 41 499.187 41C489.047 41 480.826 49.2181 480.826 59.3555C480.826 69.493 489.047 77.7111 499.187 77.7111Z" fill="url(#paint6_linear_564_3156)" stroke="#0A1A72" stroke-width="2" stroke-miterlimit="10"/>
        <path d="M499.189 73.6067C507.063 73.6067 513.445 67.226 513.445 59.3551C513.445 51.4842 507.063 45.1035 499.189 45.1035C491.316 45.1035 484.934 51.4842 484.934 59.3551C484.934 67.226 491.316 73.6067 499.189 73.6067Z" fill="white"/>
        <path d="M513.241 56.9526C514.202 62.8245 512.143 68.5033 506.974 71.7093C498.213 77.2479 486.526 72.0356 484.793 61.8178C482.712 48.9587 496.929 40.0107 507.627 47.4364C510.687 49.769 512.567 53.1924 513.241 56.9491V56.9526ZM513.241 56.9526C512.294 51.4526 507.617 47.0435 502.269 45.8018C492.652 43.6025 483.81 51.9788 485.487 61.6985C487.14 71.4252 498.262 76.385 506.603 71.113C511.23 68.1666 514.171 62.4456 513.241 56.9491V56.9526Z" fill="url(#paint7_linear_564_3156)"/>
        <path d="M578.314 153.551L360.307 190.844C354.615 191.818 350.79 197.22 351.764 202.911L378.273 357.79C379.247 363.481 384.651 367.305 390.344 366.331L608.351 329.038C614.043 328.064 617.868 322.662 616.894 316.971L590.385 162.092C589.411 156.401 584.006 152.577 578.314 153.551Z" fill="url(#paint8_linear_564_3156)" stroke="#0A1A72" stroke-width="2" stroke-miterlimit="10"/>
        <path d="M600.923 219.994L544.845 229.587C541.648 230.134 539.5 233.168 540.047 236.364L544.718 263.651C545.265 266.847 548.3 268.994 551.497 268.448L607.574 258.855C610.771 258.308 612.919 255.274 612.372 252.078L607.702 224.791C607.155 221.595 604.12 219.448 600.923 219.994Z" fill="url(#paint9_linear_564_3156)" stroke="#0A1A72" stroke-width="2" stroke-miterlimit="10"/>
        <path d="M559.75 257.244C565.384 257.244 569.951 252.678 569.951 247.046C569.951 241.414 565.384 236.848 559.75 236.848C554.116 236.848 549.549 241.414 549.549 247.046C549.549 252.678 554.116 257.244 559.75 257.244Z" fill="url(#paint10_linear_564_3156)"/>
        <path d="M569.808 245.325C571.347 254.304 561.24 260.735 553.734 255.543C549.056 252.381 547.891 245.571 551.25 241.032C556.601 233.637 568.278 236.351 569.808 245.325ZM569.808 245.325C568.234 236.455 556.749 233.912 551.594 241.273C548.446 245.595 549.568 252.17 553.975 255.198C561.284 260.43 571.268 254.21 569.803 245.325H569.808Z" fill="#142893"/>
        <path d="M197 134C204.18 134 210 128.18 210 121C210 113.82 204.18 108 197 108C189.82 108 184 113.82 184 121C184 128.18 189.82 134 197 134Z" fill="#FFBA35"/>
        <path d="M209.5 366C215.299 366 220 361.299 220 355.5C220 349.701 215.299 345 209.5 345C203.701 345 199 349.701 199 355.5C199 361.299 203.701 366 209.5 366Z" fill="#142893"/>
        <path d="M757.5 268C766.06 268 773 261.06 773 252.5C773 243.94 766.06 237 757.5 237C748.94 237 742 243.94 742 252.5C742 261.06 748.94 268 757.5 268Z" fill="#B018C9"/>
    </g>
    <defs>
        <linearGradient id="paint0_linear_564_3156" x1="483" y1="0" x2="483" y2="410" gradientUnits="userSpaceOnUse">
            <stop stop-color="#62BDFF"/>
            <stop offset="1" stop-color="#7B9BFF"/>
        </linearGradient>
        <linearGradient id="paint1_linear_564_3156" x1="583.169" y1="139.953" x2="333.293" y2="304.374" gradientUnits="userSpaceOnUse">
            <stop stop-color="#4260FF"/>
            <stop offset="1" stop-color="#13268A"/>
        </linearGradient>
        <linearGradient id="paint2_linear_564_3156" x1="523.073" y1="124.573" x2="446.494" y2="165.945" gradientUnits="userSpaceOnUse">
            <stop stop-color="#1C35BD"/>
            <stop offset="1" stop-color="#13268A"/>
        </linearGradient>
        <linearGradient id="paint3_linear_564_3156" x1="516.739" y1="132.337" x2="456.477" y2="164.597" gradientUnits="userSpaceOnUse">
            <stop stop-color="#1C35BD"/>
            <stop offset="1" stop-color="#13268A"/>
        </linearGradient>
        <linearGradient id="paint4_linear_564_3156" x1="470.271" y1="70.298" x2="410.32" y2="102.687" gradientUnits="userSpaceOnUse">
            <stop stop-color="#1C35BD"/>
            <stop offset="1" stop-color="#13268A"/>
        </linearGradient>
        <linearGradient id="paint5_linear_564_3156" x1="465.309" y1="76.2683" x2="417.955" y2="101.565" gradientUnits="userSpaceOnUse">
            <stop stop-color="#1C35BD"/>
            <stop offset="1" stop-color="#13268A"/>
        </linearGradient>
        <linearGradient id="paint6_linear_564_3156" x1="513.915" y1="39.9999" x2="474.022" y2="61.5519" gradientUnits="userSpaceOnUse">
            <stop stop-color="#1C35BD"/>
            <stop offset="1" stop-color="#13268A"/>
        </linearGradient>
        <linearGradient id="paint7_linear_564_3156" x1="510.613" y1="43.9465" x2="479.07" y2="60.7872" gradientUnits="userSpaceOnUse">
            <stop stop-color="#1C35BD"/>
            <stop offset="1" stop-color="#13268A"/>
        </linearGradient>
        <linearGradient id="paint8_linear_564_3156" x1="564.197" y1="151.045" x2="373.992" y2="348.033" gradientUnits="userSpaceOnUse">
            <stop stop-color="#1C35BD"/>
            <stop offset="1" stop-color="#13268A"/>
        </linearGradient>
        <linearGradient id="paint9_linear_564_3156" x1="599.837" y1="219.09" x2="557.553" y2="275.095" gradientUnits="userSpaceOnUse">
            <stop stop-color="#1C35BD"/>
            <stop offset="1" stop-color="#13268A"/>
        </linearGradient>
        <linearGradient id="paint10_linear_564_3156" x1="566.399" y1="237.253" x2="546.96" y2="241.963" gradientUnits="userSpaceOnUse">
            <stop stop-color="#132654"/>
            <stop offset="1" stop-color="#0F1728"/>
        </linearGradient>
        <clipPath id="clip0_564_3156">
            <rect width="968" height="410" rx="20" fill="white"/>
        </clipPath>
    </defs>
</svg>
