<svg width="26" height="26" viewBox="0 0 26 26" fill="none" xmlns="http://www.w3.org/2000/svg">
    <path d="M5.12016 20V7.00005L6.26016 8.18005H2.16016V6.00005H7.72016V20H5.12016Z" fill="#142893"/>
    <path d="M17.9773 20.2001C16.9107 20.2001 15.9173 20.0267 14.9973 19.68C14.0907 19.3201 13.2973 18.8201 12.6173 18.18C11.9507 17.5267 11.4307 16.76 11.0573 15.88C10.684 15 10.4973 14.04 10.4973 13C10.4973 11.96 10.684 11 11.0573 10.12C11.4307 9.24005 11.9573 8.48005 12.6373 7.84005C13.3173 7.18672 14.1107 6.68672 15.0173 6.34005C15.924 5.98005 16.9173 5.80005 17.9973 5.80005C19.144 5.80005 20.1907 6.00005 21.1373 6.40005C22.084 6.78672 22.884 7.36672 23.5373 8.14005L21.8573 9.72005C21.3507 9.17338 20.784 8.76672 20.1573 8.50005C19.5307 8.22005 18.8507 8.08005 18.1173 8.08005C17.384 8.08005 16.7107 8.20005 16.0973 8.44005C15.4973 8.68005 14.9707 9.02005 14.5173 9.46005C14.0773 9.90005 13.7307 10.42 13.4773 11.02C13.2373 11.62 13.1173 12.28 13.1173 13C13.1173 13.72 13.2373 14.38 13.4773 14.98C13.7307 15.58 14.0773 16.1 14.5173 16.54C14.9707 16.98 15.4973 17.32 16.0973 17.56C16.7107 17.8 17.384 17.92 18.1173 17.92C18.8507 17.92 19.5307 17.7867 20.1573 17.5201C20.784 17.2401 21.3507 16.82 21.8573 16.26L23.5373 17.8601C22.884 18.6201 22.084 19.2001 21.1373 19.6C20.1907 20 19.1373 20.2001 17.9773 20.2001Z" fill="#142893"/>
</svg>
