<svg width="26" height="26" viewBox="0 0 26 26" fill="none" xmlns="http://www.w3.org/2000/svg">
    <path d="M19.4998 10.8334H18.1348C17.7295 9.26362 16.892 7.83903 15.7175 6.72147C14.543 5.60391 13.0786 4.8382 11.4906 4.51134C9.90268 4.18448 8.2549 4.30958 6.7345 4.87243C5.21411 5.43528 3.88207 6.4133 2.88975 7.69537C1.89743 8.97744 1.28462 10.5121 1.12094 12.1251C0.95727 13.738 1.2493 15.3646 1.96385 16.8198C2.6784 18.2751 3.78682 19.5008 5.16316 20.3576C6.53949 21.2144 8.12856 21.6679 9.74979 21.6667H19.4998C20.9364 21.6667 22.3141 21.096 23.33 20.0802C24.3458 19.0644 24.9165 17.6866 24.9165 16.25C24.9165 14.8135 24.3458 13.4357 23.33 12.4199C22.3141 11.4041 20.9364 10.8334 19.4998 10.8334Z" stroke="#142893" stroke-width="2" stroke-linecap="round" stroke-linejoin="round"/>
</svg>
