<svg width="857" height="394" viewBox="0 0 857 394" fill="none" xmlns="http://www.w3.org/2000/svg">
    <ellipse cx="496.321" cy="434.09" rx="534" ry="383" transform="rotate(-32.7718 496.321 434.09)" stroke="#2A57BB" stroke-width="2" stroke-linecap="round" stroke-dasharray="10 10"/>
    <ellipse cx="496.321" cy="434.09" rx="534" ry="383" transform="rotate(-32.7718 496.321 434.09)" stroke="#2A57BB" stroke-width="2" stroke-linecap="round" stroke-dasharray="10 10"/>
    <ellipse cx="496.321" cy="434.09" rx="534" ry="383" transform="rotate(-32.7718 496.321 434.09)" stroke="#2A57BB" stroke-width="2" stroke-linecap="round" stroke-dasharray="10 10"/>
    <ellipse cx="496.321" cy="434.09" rx="534" ry="383" transform="rotate(-32.7718 496.321 434.09)" stroke="#2F68E8" stroke-width="2" stroke-linecap="round" stroke-dasharray="10 10"/>
    <ellipse cx="496.321" cy="434.091" rx="423.417" ry="303.687" transform="rotate(-9.48023 496.321 434.091)" stroke="#2A57BB" stroke-width="2" stroke-linecap="round" stroke-dasharray="10 10"/>
    <ellipse cx="496.321" cy="434.091" rx="423.417" ry="303.687" transform="rotate(-9.48023 496.321 434.091)" stroke="#2A57BB" stroke-width="2" stroke-linecap="round" stroke-dasharray="10 10"/>
    <ellipse cx="496.321" cy="434.091" rx="423.417" ry="303.687" transform="rotate(-9.48023 496.321 434.091)" stroke="#2A57BB" stroke-width="2" stroke-linecap="round" stroke-dasharray="10 10"/>
    <ellipse cx="496.321" cy="434.091" rx="423.417" ry="303.687" transform="rotate(-9.48023 496.321 434.091)" stroke="#2A57BB" stroke-width="2" stroke-linecap="round" stroke-dasharray="10 10"/>
    <circle cx="227" cy="69" r="22" fill="#8243F9"/>
    <circle cx="777.5" cy="22.5" r="15.5" fill="#27A96A"/>
    <circle cx="220.5" cy="228.5" r="15.5" fill="#E1A124"/>
    <circle cx="762" cy="174" r="8" fill="#D2E124"/>
</svg>
