<svg width="434" height="249" viewBox="0 0 434 249" fill="none" xmlns="http://www.w3.org/2000/svg">
    <path d="M433 248C423 204.471 375 103.529 263 48" stroke="#11A36B" stroke-width="2" stroke-linecap="round" stroke-dasharray="10 10"/>
    <path d="M42.1406 43.6406C47.4788 81.2272 80.8712 170.172 171.735 225.26" stroke="#D1717C" stroke-width="2" stroke-linecap="round" stroke-dasharray="10 10"/>
    <path d="M316.453 226.832C301.006 192.153 244.49 115.784 141.998 87.7431" stroke="#8B3FFD" stroke-width="2" stroke-linecap="round" stroke-dasharray="10 10"/>
    <rect x="107" y="51.9258" width="51" height="51" rx="25.5" transform="rotate(-8.94232 107 51.9258)" fill="#8B3FFD"/>
    <path d="M138.247 61.8519C131.934 62.8453 127.714 68.7293 128.696 74.971C129.689 81.2845 135.573 85.5051 141.815 84.5229C148.056 83.5408 152.348 77.6455 151.366 71.4038C150.456 65.1508 144.489 60.8698 138.247 61.8519ZM140.697 77.4203C138.401 77.7815 136.159 76.1493 135.798 73.8534C135.437 71.5576 137.069 69.3158 139.365 68.9545C141.661 68.5933 143.902 70.2256 144.264 72.5214C144.625 74.8172 143.064 77.0477 140.697 77.4203Z" fill="white"/>
    <path d="M127.309 66.1544L130.083 83.7875L126.188 84.4005L118.492 67.5417L127.309 66.1544Z" fill="white"/>
    <rect x="26.7832" width="56" height="56" rx="28" transform="rotate(28.5718 26.7832 0)" fill="white"/>
    <path d="M46.198 32.7674L37.8799 28.2375L29.7415 43.1818L38.0596 47.7117L46.198 32.7674Z" fill="#FF5A00"/>
    <path d="M34.3647 36.0114C36.0182 32.9752 38.913 31.0577 42.0515 30.5094C41.1298 28.3641 39.5135 26.4908 37.2956 25.283C32.0414 22.4216 25.4748 24.3578 22.6135 29.612C19.7522 34.8661 21.6883 41.4327 26.9425 44.294C29.1605 45.5018 31.611 45.8432 33.9131 45.4536C32.6546 42.5427 32.7112 39.0476 34.3647 36.0114Z" fill="#EB001B"/>
    <path d="M53.3515 46.3511C50.4901 51.6053 43.9236 53.5415 38.6694 50.6801C36.4515 49.4723 34.8352 47.599 33.9135 45.4537C37.0813 44.9174 39.9468 42.9879 41.6003 39.9517C43.2538 36.9155 43.2939 33.4434 42.0518 30.5095C44.3509 30.1182 46.8014 30.4596 49.0194 31.6674C54.2766 34.5304 56.1977 41.1246 53.3515 46.3511Z" fill="#F79E1B"/>
    <rect x="217" width="60" height="60" rx="30" fill="white"/>
    <path fill-rule="evenodd" clip-rule="evenodd" d="M230.626 24.127C231.003 24.1247 232.125 24.0195 232.6 25.6896C232.92 26.8146 233.429 28.6574 234.129 31.218H234.414C235.164 28.5184 235.679 26.6756 235.96 25.6896C236.44 24.0021 237.64 24.1271 238.12 24.1271L241.823 24.1271V36.1271H238.049V29.0553H237.795L235.691 36.1271H232.851L230.747 29.05H230.494V36.1271H226.72V24.1271L230.626 24.127ZM247.243 24.1271V31.2041H247.544L250.104 25.3847C250.601 24.2266 251.659 24.1271 251.659 24.1271H255.312V36.1271H251.459V29.05H251.158L248.648 34.8694C248.152 36.0223 247.042 36.1271 247.042 36.1271H243.39V24.1271H247.243ZM268.631 29.8296C268.093 31.4162 266.406 32.5525 264.537 32.5525H260.496V36.1271H256.831V29.8296H268.631Z" fill="#0F754E"/>
    <path fill-rule="evenodd" clip-rule="evenodd" d="M264.713 24.1267H256.639C256.831 26.7983 259.04 29.0854 261.326 29.0854H268.885C269.321 26.865 267.82 24.1267 264.713 24.1267Z" fill="url(#paint0_linear_204_75)"/>
    <defs>
        <linearGradient id="paint0_linear_204_75" x1="268.959" y1="27.2459" x2="256.639" y2="27.2459" gradientUnits="userSpaceOnUse">
            <stop stop-color="#1F5CD7"/>
            <stop offset="1" stop-color="#02AEFF"/>
        </linearGradient>
    </defs>
</svg>
