<svg width="1052" height="633" viewBox="0 0 1052 633" fill="none" xmlns="http://www.w3.org/2000/svg">
    <path d="M976.154 0H251.238C249.104 0 246.986 0.0453168 244.867 0.13595C244.668 0.13595 244.484 0.166162 244.284 0.166162C242.365 0.256795 240.446 0.37764 238.543 0.543801C238.236 0.574013 237.929 0.619329 237.622 0.634435C235.841 0.800597 234.06 0.981864 232.295 1.20845C231.942 1.25376 231.604 1.31419 231.266 1.3595C229.547 1.60119 227.828 1.84288 226.108 2.14499C225.755 2.20542 225.417 2.28095 225.064 2.34137C223.376 2.64348 221.687 2.9607 220.014 3.32323C219.645 3.39876 219.292 3.48939 218.939 3.58003C217.281 3.95767 215.639 4.33531 213.996 4.75826C213.643 4.8489 213.29 4.95464 212.922 5.06037C211.294 5.49844 209.682 5.95161 208.071 6.45009C207.702 6.55583 207.349 6.69178 206.996 6.79752C205.399 7.296 203.818 7.80959 202.252 8.3685C201.884 8.48935 201.531 8.6404 201.178 8.77635C199.627 9.33526 198.077 9.92438 196.557 10.5286C196.189 10.6797 195.836 10.8307 195.467 10.9818C193.963 11.6011 192.458 12.2355 190.969 12.9002C190.601 13.0663 190.232 13.2476 189.864 13.4138C188.406 14.0935 186.947 14.7733 185.504 15.4983C185.12 15.6947 184.752 15.8911 184.384 16.0875C182.971 16.8125 181.559 17.5527 180.177 18.3231C179.794 18.5346 179.41 18.7612 179.026 18.9877C177.66 19.7581 176.309 20.5436 174.973 21.3593C174.574 21.601 174.19 21.8578 173.791 22.0995C172.486 22.9152 171.197 23.7309 169.923 24.5919C169.508 24.8638 169.109 25.1508 168.71 25.4227C167.467 26.2686 166.238 27.1297 165.01 28.0209C164.596 28.323 164.181 28.6402 163.752 28.9574C162.57 29.8336 161.403 30.7248 160.252 31.6462C159.822 31.9937 159.392 32.3411 158.962 32.6885C157.841 33.5948 156.736 34.5163 155.661 35.4528C155.216 35.8456 154.771 36.2383 154.341 36.6311C153.297 37.5525 152.253 38.4891 151.24 39.4558C150.78 39.8939 150.334 40.3319 149.874 40.7549C148.891 41.6914 147.924 42.6431 146.973 43.6099C146.512 44.0932 146.051 44.5766 145.591 45.06C144.685 46.0116 143.779 46.9784 142.904 47.9452C142.429 48.4739 141.968 49.0026 141.492 49.5464C140.648 50.498 139.819 51.4648 139.021 52.4466C138.545 53.0206 138.069 53.6098 137.593 54.1989C136.825 55.1505 136.058 56.1173 135.321 57.0992C134.83 57.7336 134.369 58.3831 133.893 59.0176C133.187 59.9692 132.496 60.936 131.821 61.9027C131.345 62.5976 130.869 63.2924 130.393 64.0024C129.764 64.9541 129.134 65.9057 128.52 66.8574C128.044 67.6126 127.569 68.3679 127.108 69.1383C126.54 70.0749 125.972 71.0114 125.419 71.9631C124.944 72.7788 124.483 73.5945 124.038 74.4102C123.531 75.3316 123.025 76.2531 122.533 77.1896C122.073 78.0657 121.628 78.9418 121.182 79.8331C120.737 80.7394 120.292 81.6458 119.862 82.5672C119.417 83.5037 118.987 84.4403 118.573 85.3768C118.174 86.2681 117.79 87.1593 117.421 88.0656C117.007 89.0626 116.592 90.0596 116.209 91.0565C115.871 91.9327 115.533 92.8088 115.211 93.6849C114.827 94.7423 114.443 95.7846 114.075 96.8571C113.783 97.7181 113.507 98.5791 113.215 99.4401C112.862 100.543 112.509 101.661 112.187 102.763C111.941 103.609 111.711 104.455 111.465 105.301C111.143 106.464 110.836 107.612 110.544 108.791C110.467 109.108 110.375 109.425 110.298 109.742C109.995 110.952 109.721 112.177 109.463 113.402C109.457 113.429 109.456 113.456 109.453 113.484C109.449 113.518 109.435 113.55 109.428 113.584L109.27 114.304L101.059 153.236C101.058 153.243 101.056 153.241 101.057 153.247C101.069 153.293 101.137 153.303 101.149 153.257C107.272 130.821 128.061 114.304 152.791 114.304H256.488H885.198C914.733 114.304 938.681 137.869 938.681 166.932C938.681 195.995 914.733 219.56 885.198 219.56H178.381C125.205 219.56 79.3351 256.297 68.5431 307.535L8.35729 593.137C8.35315 593.157 8.35106 593.171 8.35106 593.191C8.35106 593.211 8.34897 593.237 8.34483 593.257L0.00978451 632.772C0.00327881 632.803 -0.00042164 632.835 0.00223418 632.866C0.00407244 632.888 0.00742318 632.913 0.0135309 632.934C0.0146676 632.938 0.0151132 632.94 0.0156953 632.944C0.0197798 632.972 0.0551348 632.966 0.0624676 632.939C6.1473 610.448 26.9637 593.877 51.7336 593.877H155.416C155.424 593.877 155.431 593.87 155.431 593.861C155.431 593.853 155.438 593.846 155.446 593.846H795.669C882.787 593.846 957.947 533.651 975.632 449.709L1049.39 99.712C1051.24 90.9659 1052.11 82.0536 1051.99 73.1413C1051.48 32.5072 1017.43 0 976.138 0H976.154Z" fill="url(#paint0_linear_481_4082)"/>
    <defs>
        <linearGradient id="paint0_linear_481_4082" x1="947.929" y1="-17.2452" x2="37.3199" y2="712.061" gradientUnits="userSpaceOnUse">
            <stop stop-color="#243DC0"/>
            <stop offset="1" stop-color="#13268A"/>
        </linearGradient>
    </defs>
</svg>
