<svg width="331" height="334" viewBox="0 0 331 334" fill="none" xmlns="http://www.w3.org/2000/svg">
    <path d="M33.5723 132C32.7661 169.955 51.3455 263.128 132.113 332.175" stroke="#4666FF" stroke-width="2" stroke-linecap="round" stroke-dasharray="10 10"/>
    <circle cx="31.2397" cy="91.2406" r="28" transform="rotate(7.08702 31.2397 91.2406)" fill="#1434CB"/>
    <path d="M36.6681 86.2251C33.8403 85.8735 31.117 87.1374 30.7545 90.053C30.3388 93.3966 34.792 94.1847 34.5832 95.8645C34.4952 96.5717 33.6637 97.1113 32.3779 96.9514C30.5531 96.7245 29.2992 95.6703 29.2992 95.6703L28.3498 98.5399C28.3498 98.5399 29.8281 99.4825 31.914 99.7418C35.0057 100.126 37.6444 98.7731 38.0131 95.8077C38.4523 92.2746 33.9796 91.491 34.1735 89.9319C34.2423 89.3779 34.9358 88.8476 36.218 89.007C37.6646 89.1869 38.7649 89.977 38.7649 89.977L39.6893 87.2064C39.6893 87.2064 38.4792 86.4503 36.6681 86.2251V86.2251ZM10.7693 83.223L10.6475 83.6434C10.6475 83.6434 11.8081 84.0257 12.8215 84.6265C14.1344 85.3343 14.1939 85.6586 14.3057 86.6571L15.5312 97.4804L18.9253 97.9024L25.8273 85.0951L22.441 84.6741L17.9435 93.4061L17.5368 85.4799C17.5214 84.5766 16.9475 83.9911 16.1679 83.8942L10.7693 83.223V83.223ZM27.189 85.2644L22.8594 98.3915L26.0886 98.793L30.4088 85.6647L27.189 85.2644V85.2644ZM45.1991 87.5035C44.4204 87.4067 43.9521 87.8042 43.5518 88.5509L37.3011 100.187L40.6874 100.608L41.5959 98.6521L45.7214 99.165L45.8665 101.252L48.8545 101.623L47.9209 87.8419L45.1991 87.5035V87.5035ZM45.1875 91.194L45.5634 96.3687L42.8743 96.0344L45.1875 91.194V91.194Z" fill="white"/>
    <circle cx="121.864" cy="29.5315" r="25" transform="rotate(-11.645 121.864 29.5315)" fill="#26A17B"/>
    <path d="M124.632 29.8655L124.632 29.8622C124.488 29.9022 123.747 30.1003 122.076 30.4445C120.741 30.7198 119.796 30.8761 119.461 30.9277L119.462 30.931C114.28 31.766 110.267 31.6744 110.049 30.6164C109.831 29.5617 113.484 27.8869 118.571 26.6054L119.281 30.0532C119.621 30.0076 120.596 29.8657 121.925 29.5919C123.521 29.2629 124.305 29.0317 124.451 28.9877L123.742 25.5432C128.915 24.7137 132.917 24.8074 133.135 25.8621C133.352 26.9168 129.709 28.5861 124.633 29.8689M123.668 25.1861L123.032 22.1021L130.184 20.6282L129.215 15.9255L109.745 19.9381L110.714 24.6409L117.866 23.167L118.501 26.251C112.743 27.7126 108.608 29.7477 108.888 31.1095C109.169 32.4713 113.775 32.705 119.64 31.7748L121.677 41.6609L126.847 40.5954L124.81 30.7092C130.558 29.2497 134.686 27.2159 134.406 25.8542C134.126 24.4957 129.529 24.2566 123.672 25.1888" fill="white"/>
    <path d="M95.7305 279.561C118.098 248.886 156.14 161.828 129.372 58.997" stroke="#26A17B" stroke-width="2" stroke-linecap="round" stroke-dasharray="10 10"/>
    <rect x="237.002" y="42" width="56" height="56" rx="28" fill="#F7931A"/>
    <path d="M276.942 67.0608C277.421 63.9087 274.984 62.2139 271.654 61.083L272.734 56.8121L270.097 56.1655L269.044 60.3236C268.352 60.1521 267.64 59.9927 266.931 59.8333L267.991 55.6482L265.354 55L264.274 59.2694C263.7 59.1401 263.135 59.0137 262.589 58.8784L262.592 58.8649L258.954 57.9701L258.252 60.7462C258.252 60.7462 260.21 61.1883 260.169 61.2153C261.237 61.4785 261.429 62.1748 261.397 62.7282L260.167 67.5931C260.24 67.6112 260.335 67.6382 260.442 67.6788L260.163 67.6112L258.438 74.4265C258.307 74.7454 257.976 75.2251 257.228 75.0431C257.256 75.0807 255.311 74.5724 255.311 74.5724L254.002 77.547L257.436 78.3906C258.073 78.5486 258.699 78.714 259.314 78.8689L258.223 83.1879L260.859 83.8345L261.939 79.5636C262.659 79.7546 263.358 79.9321 264.042 80.1005L262.965 84.3534L265.602 85L266.693 80.69C271.192 81.5292 274.573 81.1908 275.997 77.1816C277.145 73.9543 275.941 72.0911 273.574 70.8775C275.298 70.4865 276.595 69.3691 276.942 67.0608V67.0608ZM270.914 75.389C270.1 78.6177 264.584 76.8718 262.795 76.4342L264.245 70.7121C266.033 71.1527 271.767 72.0234 270.914 75.389ZM271.73 67.0141C270.987 69.9511 266.397 68.4578 264.909 68.0924L266.221 62.9042C267.709 63.2696 272.505 63.9508 271.73 67.0141Z" fill="white"/>
    <path d="M210.033 323.258C198.145 287.204 188.617 192.676 245.616 102.999" stroke="#F7931A" stroke-width="2" stroke-linecap="round" stroke-dasharray="10 10"/>
</svg>
