<svg width="444" height="467" viewBox="0 0 444 467" fill="none" xmlns="http://www.w3.org/2000/svg">
    <rect x="389.828" y="228.558" width="49" height="49" rx="24.5" transform="rotate(-5.3367 389.828 228.558)" fill="#EBEBEB"/>
    <path d="M421.31 257.698L413.062 258.468L411.677 243.649L419.925 242.878L421.31 257.698Z" fill="#7375CF"/>
    <path d="M412.903 251.009C412.622 248.005 413.774 245.191 415.809 243.263C414.09 242.147 411.992 241.59 409.797 241.795C404.598 242.28 400.769 246.898 401.255 252.097C401.74 257.296 406.358 261.125 411.557 260.639C413.752 260.434 415.71 259.497 417.193 258.082C414.837 256.565 413.183 254.012 412.903 251.009Z" fill="#EB001B"/>
    <path d="M431.747 249.249C432.233 254.448 428.404 259.065 423.205 259.551C421.009 259.756 418.912 259.198 417.193 258.082C419.227 256.155 420.379 253.34 420.099 250.337C419.818 247.333 418.165 244.781 415.809 243.263C417.291 241.848 419.249 240.912 421.445 240.707C426.644 240.221 431.261 244.05 431.747 249.249Z" fill="#00A2E5"/>
    <rect x="192" y="97" width="56" height="56" rx="28" fill="#F7931A"/>
    <path d="M231.94 122.061C232.419 118.909 229.982 117.214 226.652 116.083L227.732 111.812L225.095 111.165L224.042 115.324C223.35 115.152 222.638 114.993 221.929 114.833L222.989 110.648L220.352 110L219.272 114.269C218.698 114.14 218.133 114.014 217.587 113.878L217.59 113.865L213.952 112.97L213.25 115.746C213.25 115.746 215.208 116.188 215.167 116.215C216.235 116.479 216.427 117.175 216.395 117.728L215.165 122.593C215.239 122.611 215.333 122.638 215.44 122.679L215.161 122.611L213.436 129.427C213.305 129.745 212.974 130.225 212.226 130.043C212.254 130.081 210.309 129.572 210.309 129.572L209 132.547L212.434 133.391C213.072 133.549 213.697 133.714 214.312 133.869L213.221 138.188L215.857 138.835L216.937 134.564C217.657 134.755 218.356 134.932 219.04 135.101L217.963 139.353L220.6 140L221.691 135.69C226.19 136.529 229.571 136.191 230.995 132.182C232.143 128.954 230.939 127.091 228.572 125.877C230.296 125.486 231.593 124.369 231.94 122.061ZM225.912 130.389C225.098 133.618 219.582 131.872 217.793 131.434L219.243 125.712C221.031 126.153 226.765 127.023 225.912 130.389ZM226.728 122.014C225.985 124.951 221.395 123.458 219.907 123.092L221.219 117.904C222.707 118.27 227.504 118.951 226.728 122.014Z" fill="white"/>
    <circle cx="391.996" cy="30" r="30" fill="#627EEA"/>
    <path d="M391.993 11.0566V25.0619L403.83 30.3514L391.993 11.0566Z" fill="white" fill-opacity="0.602"/>
    <path d="M391.993 11.0566L380.154 30.3514L391.993 25.0619V11.0566Z" fill="white"/>
    <path d="M391.993 39.4272V48.9436L403.838 32.5557L391.993 39.4272Z" fill="white" fill-opacity="0.602"/>
    <path d="M391.993 48.9436V39.4257L380.154 32.5557L391.993 48.9436Z" fill="white"/>
    <path d="M391.993 37.2244L403.83 30.3513L391.993 25.0649V37.2244Z" fill="white" fill-opacity="0.2"/>
    <path d="M380.154 30.3513L391.993 37.2244V25.0649L380.154 30.3513Z" fill="white" fill-opacity="0.602"/>
    <circle cx="56.8675" cy="151.532" r="25" transform="rotate(-11.645 56.8675 151.532)" fill="#26A17B"/>
    <path d="M59.6363 151.866L59.6356 151.862C59.4923 151.902 58.7505 152.1 57.0801 152.445C55.7444 152.72 54.8002 152.876 54.4654 152.928L54.4661 152.931C49.2836 153.766 45.2708 153.674 45.0527 152.616C44.8354 151.562 48.4876 149.887 53.5746 148.605L54.2852 152.053C54.6247 152.008 55.6001 151.866 56.929 151.592C58.5251 151.263 59.3094 151.032 59.4554 150.988L58.7455 147.543C63.9186 146.714 67.9212 146.807 68.1386 147.862C68.3559 148.917 64.7131 150.586 59.637 151.869M58.6719 147.186L58.0363 144.102L65.1881 142.628L64.2189 137.925L44.7485 141.938L45.7177 146.641L52.8695 145.167L53.5051 148.251C47.7467 149.713 43.6117 151.748 43.8924 153.11C44.173 154.471 48.7791 154.705 54.6435 153.775L56.6809 163.661L61.8511 162.595L59.8137 152.709C65.5619 151.25 69.6901 149.216 69.4095 147.854C69.1295 146.496 64.5329 146.257 58.676 147.189" fill="white"/>
    <path d="M30.7344 401.563C53.1018 370.889 91.1444 283.831 64.3757 180.999" stroke="#26A17B" stroke-width="2" stroke-linecap="round" stroke-dasharray="10 10"/>
    <path d="M284.859 465.189C285.592 427.233 307.932 334.89 391.431 269.172" stroke="white" stroke-width="2" stroke-linecap="round" stroke-dasharray="10 10"/>
    <path d="M257.047 271.51C292.784 251.426 369.228 183.006 389.103 70" stroke="#627EEA" stroke-width="2" stroke-linecap="round" stroke-dasharray="10 10"/>
    <path d="M165.031 378.259C153.143 342.205 143.615 247.677 200.615 158" stroke="#F7931A" stroke-width="2" stroke-linecap="round" stroke-dasharray="10 10"/>
</svg>
