<svg width="556" height="446" viewBox="0 0 556 446" fill="none" xmlns="http://www.w3.org/2000/svg">
    <circle cx="448.238" cy="134.241" r="28" transform="rotate(7.08702 448.238 134.241)" fill="#1434CB"/>
    <path d="M454.725 127.523C451.897 127.171 449.174 128.435 448.812 131.351C448.396 134.694 452.849 135.483 452.64 137.162C452.552 137.87 451.721 138.409 450.435 138.249C448.61 138.022 447.356 136.968 447.356 136.968L446.407 139.838C446.407 139.838 447.885 140.78 449.971 141.04C453.063 141.424 455.702 140.071 456.07 137.106C456.509 133.572 452.037 132.789 452.231 131.23C452.299 130.676 452.993 130.145 454.275 130.305C455.722 130.485 456.822 131.275 456.822 131.275L457.746 128.504C457.746 128.504 456.536 127.748 454.725 127.523ZM428.826 124.521L428.705 124.941C428.705 124.941 429.865 125.324 430.879 125.924C432.192 126.632 432.251 126.956 432.363 127.955L433.588 138.778L436.982 139.2L443.884 126.393L440.498 125.972L436.001 134.704L435.594 126.778C435.579 125.874 435.005 125.289 434.225 125.192L428.826 124.521ZM445.246 126.562L440.917 139.689L444.146 140.091L448.466 126.963L445.246 126.562ZM463.256 128.801C462.478 128.705 462.009 129.102 461.609 129.849L455.358 141.485L458.745 141.906L459.653 139.95L463.779 140.463L463.924 142.55L466.912 142.921L465.978 129.14L463.256 128.801ZM463.245 132.492L463.621 137.667L460.931 137.332L463.245 132.492Z" fill="white"/>
    <path d="M406 248C396 204.471 348 103.529 236 48" stroke="#11A36B" stroke-width="2" stroke-linecap="round" stroke-dasharray="10 10"/>
    <path d="M61 105.748C76.4467 140.427 132.963 216.796 235.455 244.837" stroke="#D1717C" stroke-width="2" stroke-linecap="round" stroke-dasharray="10 10"/>
    <path d="M370.453 298.836C355.006 264.157 298.49 187.788 195.998 159.747" stroke="#8B3FFD" stroke-width="2" stroke-linecap="round" stroke-dasharray="10 10"/>
    <path d="M35.9453 292C72.494 302.269 156.234 347.146 198.803 444.505" stroke="#F7931A" stroke-width="2" stroke-linecap="round" stroke-dasharray="10 10"/>
    <path d="M450.57 175C449.764 212.955 468.344 306.128 549.111 375.175" stroke="#4666FF" stroke-width="2" stroke-linecap="round" stroke-dasharray="10 10"/>
    <rect y="269.97" width="46" height="46" rx="23" transform="rotate(-17.6796 0 269.97)" fill="#FD8C00"/>
    <path d="M40.5993 287.451C41.1645 287.484 41.5987 288.177 41.7421 288.493C42.011 289.069 41.9112 289.357 41.7175 289.418C41.5238 289.48 41.1785 289.334 40.7405 288.962C40.3017 288.59 40.0192 288.105 40.0879 287.784C40.1286 287.579 40.3164 287.434 40.5993 287.451ZM38.3549 290.576C38.6647 290.477 39.0561 290.501 39.4522 290.673C40.2124 290.986 40.5719 291.511 40.3979 292.035C40.2913 292.304 40.0445 292.531 39.7155 292.636C39.3864 292.741 39.0011 292.736 38.701 292.597C38.011 292.306 37.6094 291.58 37.8216 291.044C37.9019 290.826 38.0842 290.662 38.3549 290.576ZM33.3642 298.328C26.0091 300.672 18.1481 296.611 15.8038 289.257C13.4596 281.902 17.521 274.041 24.8749 271.697C32.2295 269.353 40.0911 273.414 42.4352 280.768C43.2309 283.264 43.2809 285.829 42.7361 288.198C42.7154 288.269 42.6125 288.28 42.5685 288.209C41.0616 285.086 38.4941 283.921 35.4185 284.305C35.154 284.346 35.0662 284.204 35.383 284.061C36.2485 283.699 37.5125 283.318 38.2076 283.224C38.1412 282.883 38.0501 282.528 37.939 282.18C36.3905 277.322 31.1833 274.632 26.3252 276.18C21.4676 277.728 18.7777 282.936 20.3262 287.794C21.8747 292.652 27.0819 295.342 31.94 293.793L32.3461 293.664C31.9577 292.922 31.645 292.143 31.4127 291.339C31.2598 290.79 31.3512 290.676 31.7191 291.028C33.6109 292.749 35.9576 294.09 39.6042 293.759C42.5887 293.491 45.6039 293.318 49.8191 296.174C50.1947 296.417 49.8996 296.895 49.5036 296.723C45.5821 294.988 42.5113 294.986 39.9757 295.794C37.1367 296.721 35.3193 297.705 33.3642 298.328Z" fill="white"/>
    <rect x="161" y="123.928" width="51" height="51" rx="25.5" transform="rotate(-8.94232 161 123.928)" fill="#8B3FFD"/>
    <path d="M192.247 133.854C185.934 134.847 181.714 140.731 182.696 146.973C183.689 153.286 189.573 157.507 195.815 156.525C202.056 155.543 206.348 149.647 205.366 143.406C204.456 137.153 198.489 132.872 192.247 133.854ZM194.697 149.422C192.401 149.783 190.159 148.151 189.798 145.855C189.437 143.56 191.069 141.318 193.365 140.956C195.661 140.595 197.902 142.228 198.264 144.523C198.625 146.819 197.064 149.05 194.697 149.422Z" fill="white"/>
    <path d="M181.309 138.156L184.083 155.789L180.188 156.402L172.492 139.544L181.309 138.156Z" fill="white"/>
    <rect x="34.2578" y="68" width="56" height="56" rx="28" transform="rotate(12.6462 34.2578 68)" fill="white"/>
    <path d="M61.9185 94.1825L52.6768 92.1089L48.9513 108.713L58.1931 110.786L61.9185 94.1825Z" fill="#FF5A00"/>
    <path d="M51.4291 100.549C52.186 97.1755 54.4437 94.5373 57.3112 93.1488C55.8362 91.3388 53.768 89.9809 51.3037 89.428C45.4661 88.1182 39.6829 91.7818 38.3731 97.6194C37.0633 103.457 40.7269 109.24 46.5645 110.55C49.0288 111.103 51.4789 110.759 53.5858 109.753C51.5768 107.299 50.6722 103.922 51.4291 100.549Z" fill="#EB001B"/>
    <path d="M72.5242 105.282C71.2144 111.12 65.4311 114.783 59.5935 113.473C57.1292 112.921 55.061 111.563 53.586 109.753C56.4851 108.368 58.7112 105.726 59.4681 102.353C60.225 98.9792 59.3109 95.6293 57.3115 93.1488C59.4149 92.1418 61.8651 91.7976 64.3293 92.3505C70.1704 93.6611 73.8271 99.4751 72.5242 105.282Z" fill="#F79E1B"/>
    <rect x="190" width="60" height="60" rx="30" fill="white"/>
    <path fill-rule="evenodd" clip-rule="evenodd" d="M203.626 24.127C204.003 24.1247 205.125 24.0195 205.6 25.6896C205.92 26.8146 206.429 28.6574 207.129 31.218H207.414C208.164 28.5184 208.679 26.6756 208.96 25.6896C209.44 24.0021 210.64 24.1271 211.12 24.1271L214.823 24.1271V36.1271H211.049V29.0553H210.795L208.691 36.1271H205.851L203.747 29.05H203.494V36.1271H199.72V24.1271L203.626 24.127ZM220.243 24.1271V31.2041H220.544L223.104 25.3847C223.601 24.2266 224.659 24.1271 224.659 24.1271H228.312V36.1271H224.459V29.05H224.158L221.648 34.8694C221.152 36.0223 220.042 36.1271 220.042 36.1271H216.39V24.1271H220.243ZM241.631 29.8296C241.093 31.4162 239.406 32.5525 237.537 32.5525H233.496V36.1271H229.831V29.8296H241.631Z" fill="#0F754E"/>
    <path fill-rule="evenodd" clip-rule="evenodd" d="M237.713 24.1267H229.639C229.831 26.7983 232.04 29.0854 234.326 29.0854H241.886C242.322 26.865 240.82 24.1267 237.713 24.1267Z" fill="url(#paint0_linear_481_4098)"/>
    <defs>
        <linearGradient id="paint0_linear_481_4098" x1="241.96" y1="27.2459" x2="229.639" y2="27.2459" gradientUnits="userSpaceOnUse">
            <stop stop-color="#1F5CD7"/>
            <stop offset="1" stop-color="#02AEFF"/>
        </linearGradient>
    </defs>
</svg>
