<svg width="135" height="36" viewBox="0 0 135 36" fill="none" xmlns="http://www.w3.org/2000/svg">
    <g clip-path="url(#clip0_481_4056)">
        <path d="M25.399 31.4441C25.4056 33.9348 23.3483 35.9563 20.8091 35.9563H12.9548C11.9367 35.9563 10.9634 35.5448 10.2644 34.8188L1.7415 25.9665C1.44293 25.6336 1.21249 25.3399 1.05019 25.1221C0.0137757 23.7294 -7.25798e-05 23.0718 0.020977 22.7889C0.0220848 22.7705 0.0237467 22.7558 0.0248545 22.746C0.0248545 22.7449 0.0276242 22.7324 0.0281781 22.7314C0.124563 22.2774 0.286866 21.5406 0.323426 21.337C0.338936 21.2577 0.40984 21.2007 0.491822 21.2007H15.9754C16.6413 21.2007 17.2783 21.4695 17.7353 21.9446L24.2867 28.7487C24.9891 29.4785 25.3962 30.4401 25.399 31.4436V31.4441Z" fill="white"/>
        <path d="M35.2486 0H9.09062C9.01362 0 8.93718 0.00162896 8.86073 0.00488688C8.85353 0.00488688 8.84689 0.00597285 8.83969 0.00597285C8.77044 0.00923077 8.7012 0.0135747 8.63251 0.0195475C8.62144 0.0206335 8.61036 0.0222624 8.59928 0.0228054C8.53502 0.0287783 8.47076 0.0352941 8.40706 0.0434389C8.39432 0.0450679 8.38213 0.0472398 8.36995 0.0488688C8.30791 0.0575566 8.24587 0.0662443 8.18383 0.0771041C8.17108 0.079276 8.1589 0.0819909 8.14616 0.0841629C8.08523 0.0950226 8.02429 0.106425 7.96391 0.119457C7.95062 0.122172 7.93788 0.12543 7.92514 0.128688C7.86531 0.142262 7.80604 0.155837 7.74677 0.171041C7.73403 0.174299 7.72129 0.1781 7.70799 0.1819C7.64928 0.197647 7.59111 0.213937 7.53295 0.231855C7.51966 0.235656 7.50692 0.240543 7.49418 0.244344C7.43657 0.262262 7.37951 0.280724 7.32301 0.300814C7.30971 0.305158 7.29697 0.310588 7.28423 0.315475C7.22829 0.335566 7.17234 0.356742 7.1175 0.378462C7.1042 0.383891 7.09146 0.389321 7.07817 0.394751C7.02388 0.417014 6.9696 0.439819 6.91587 0.46371C6.90257 0.469683 6.88928 0.476199 6.87598 0.482172C6.82336 0.506606 6.77074 0.531041 6.71867 0.557104C6.70482 0.564163 6.69152 0.571222 6.67823 0.578281C6.62727 0.604344 6.5763 0.63095 6.52645 0.658643C6.5126 0.666244 6.49875 0.674389 6.4849 0.682534C6.4356 0.710226 6.38686 0.738462 6.33867 0.767783C6.32426 0.776471 6.31041 0.785701 6.29601 0.794389C6.24893 0.82371 6.2024 0.853032 6.15642 0.883982C6.14146 0.893756 6.12706 0.904072 6.11266 0.913846C6.06779 0.944253 6.02348 0.975204 5.97916 1.00724C5.9642 1.0181 5.94925 1.0295 5.93374 1.0409C5.89109 1.0724 5.84899 1.10443 5.80744 1.13756C5.79193 1.15005 5.77642 1.16253 5.76091 1.17502C5.72047 1.2076 5.68059 1.24072 5.64181 1.27439C5.62575 1.28851 5.60969 1.30262 5.59418 1.31674C5.55651 1.34986 5.51884 1.38353 5.48228 1.41828C5.46566 1.43403 5.44959 1.44977 5.43297 1.46498C5.39752 1.49864 5.36263 1.53285 5.32828 1.5676C5.31166 1.58498 5.29504 1.60235 5.27843 1.61973C5.24574 1.65394 5.21306 1.68869 5.18149 1.72344C5.16432 1.74244 5.1477 1.76145 5.13053 1.781C5.10006 1.8152 5.07015 1.84995 5.04134 1.88525C5.02417 1.90588 5.007 1.92706 4.98983 1.94824C4.96213 1.98244 4.93443 2.01719 4.90784 2.05249C4.89012 2.07529 4.8735 2.09864 4.85633 2.12145C4.83085 2.15566 4.80592 2.19041 4.78155 2.22516C4.76437 2.25014 4.7472 2.27511 4.73003 2.30063C4.70732 2.33484 4.68461 2.36905 4.66245 2.40326C4.64528 2.43041 4.62811 2.45756 4.61149 2.48525C4.59099 2.51891 4.5705 2.55258 4.55056 2.58679C4.53338 2.61611 4.51677 2.64543 4.5007 2.67475C4.48242 2.70787 4.46414 2.741 4.44642 2.77466C4.4298 2.80615 4.41373 2.83765 4.39767 2.86968C4.3816 2.90226 4.36554 2.93484 4.35003 2.96796C4.33397 3.00163 4.31846 3.03529 4.3035 3.06896C4.2891 3.101 4.27525 3.13303 4.26195 3.16561C4.247 3.20145 4.23204 3.23729 4.21819 3.27312C4.20601 3.30462 4.19382 3.33611 4.18219 3.3676C4.16834 3.40561 4.15449 3.44308 4.1412 3.48163C4.13067 3.51258 4.1207 3.54353 4.11018 3.57448C4.09744 3.61412 4.0847 3.6543 4.07306 3.69394C4.0642 3.72434 4.05589 3.75475 4.04703 3.78516C4.03539 3.82697 4.02432 3.86824 4.01379 3.91059C4.01102 3.92199 4.0077 3.93339 4.00493 3.9448C3.99385 3.98878 3.98388 4.0333 3.97446 4.07783C3.97446 4.07891 3.97446 4.08 3.97391 4.08109L3.96781 4.10878L3.67146 5.5086C3.67146 5.5086 3.67257 5.51294 3.67312 5.51511C3.89193 4.70552 4.64362 4.10878 5.53822 4.10878H9.28006H31.9665C33.0323 4.10878 33.8964 4.95584 33.8964 6.00054C33.8964 7.04525 33.0323 7.89231 31.9665 7.89231H6.46164C4.5428 7.89231 2.88764 9.21285 2.49822 11.0547L0.326243 21.322C0.326243 21.322 0.326243 21.3236 0.326243 21.3242L0.0249023 22.7473C0.0249023 22.7473 0.0249023 22.75 0.0254563 22.7517C0.0254563 22.7522 0.0260102 22.7533 0.0265642 22.7538C0.245369 21.9443 0.997057 21.3475 1.89166 21.3475H5.63351V21.3464H28.736C31.8795 21.3464 34.5916 19.1826 35.2297 16.1652L37.8914 3.58425C37.9579 3.26986 37.9894 2.9495 37.985 2.62914C37.9667 1.16851 36.7381 0 35.248 0H35.2486Z" fill="white"/>
    </g>
    <path d="M53.992 27V10.2H61.264C62.768 10.2 64.064 10.448 65.152 10.944C66.24 11.424 67.08 12.12 67.672 13.032C68.264 13.944 68.56 15.032 68.56 16.296C68.56 17.544 68.264 18.624 67.672 19.536C67.08 20.448 66.24 21.152 65.152 21.648C64.064 22.128 62.768 22.368 61.264 22.368H56.152L57.88 20.616V27H53.992ZM57.88 21.048L56.152 19.2H61.048C62.248 19.2 63.144 18.944 63.736 18.432C64.328 17.92 64.624 17.208 64.624 16.296C64.624 15.368 64.328 14.648 63.736 14.136C63.144 13.624 62.248 13.368 61.048 13.368H56.152L57.88 11.52V21.048ZM78.8746 27V24.48L78.6346 23.928V19.416C78.6346 18.616 78.3866 17.992 77.8906 17.544C77.4106 17.096 76.6666 16.872 75.6586 16.872C74.9706 16.872 74.2906 16.984 73.6186 17.208C72.9626 17.416 72.4026 17.704 71.9386 18.072L70.5946 15.456C71.2986 14.96 72.1466 14.576 73.1386 14.304C74.1306 14.032 75.1386 13.896 76.1626 13.896C78.1306 13.896 79.6586 14.36 80.7466 15.288C81.8346 16.216 82.3786 17.664 82.3786 19.632V27H78.8746ZM74.9386 27.192C73.9306 27.192 73.0666 27.024 72.3466 26.688C71.6266 26.336 71.0746 25.864 70.6906 25.272C70.3066 24.68 70.1146 24.016 70.1146 23.28C70.1146 22.512 70.2986 21.84 70.6666 21.264C71.0506 20.688 71.6506 20.24 72.4666 19.92C73.2826 19.584 74.3466 19.416 75.6586 19.416H79.0906V21.6H76.0666C75.1866 21.6 74.5786 21.744 74.2426 22.032C73.9226 22.32 73.7626 22.68 73.7626 23.112C73.7626 23.592 73.9466 23.976 74.3146 24.264C74.6986 24.536 75.2186 24.672 75.8746 24.672C76.4986 24.672 77.0586 24.528 77.5546 24.24C78.0506 23.936 78.4106 23.496 78.6346 22.92L79.2106 24.648C78.9386 25.48 78.4426 26.112 77.7226 26.544C77.0026 26.976 76.0746 27.192 74.9386 27.192ZM87.1647 31.848C86.4927 31.848 85.8287 31.744 85.1727 31.536C84.5167 31.328 83.9807 31.04 83.5647 30.672L84.9327 28.008C85.2207 28.264 85.5487 28.464 85.9167 28.608C86.3007 28.752 86.6767 28.824 87.0447 28.824C87.5727 28.824 87.9887 28.696 88.2927 28.44C88.6127 28.2 88.9007 27.792 89.1567 27.216L89.8287 25.632L90.1167 25.224L94.7487 14.088H98.3487L92.5167 27.792C92.1007 28.832 91.6207 29.648 91.0767 30.24C90.5487 30.832 89.9567 31.248 89.3007 31.488C88.6607 31.728 87.9487 31.848 87.1647 31.848ZM89.3727 27.504L83.6127 14.088H87.4767L91.9407 24.888L89.3727 27.504ZM105.669 27.192C104.293 27.192 103.069 26.904 101.997 26.328C100.941 25.752 100.101 24.968 99.4769 23.976C98.8689 22.968 98.5649 21.824 98.5649 20.544C98.5649 19.248 98.8689 18.104 99.4769 17.112C100.101 16.104 100.941 15.32 101.997 14.76C103.069 14.184 104.293 13.896 105.669 13.896C107.029 13.896 108.245 14.184 109.317 14.76C110.389 15.32 111.229 16.096 111.837 17.088C112.445 18.08 112.749 19.232 112.749 20.544C112.749 21.824 112.445 22.968 111.837 23.976C111.229 24.968 110.389 25.752 109.317 26.328C108.245 26.904 107.029 27.192 105.669 27.192ZM105.669 24.12C106.293 24.12 106.853 23.976 107.349 23.688C107.845 23.4 108.237 22.992 108.525 22.464C108.813 21.92 108.957 21.28 108.957 20.544C108.957 19.792 108.813 19.152 108.525 18.624C108.237 18.096 107.845 17.688 107.349 17.4C106.853 17.112 106.293 16.968 105.669 16.968C105.045 16.968 104.485 17.112 103.989 17.4C103.493 17.688 103.093 18.096 102.789 18.624C102.501 19.152 102.357 19.792 102.357 20.544C102.357 21.28 102.501 21.92 102.789 22.464C103.093 22.992 103.493 23.4 103.989 23.688C104.485 23.976 105.045 24.12 105.669 24.12ZM115.707 27V13.8C115.707 12.344 116.139 11.184 117.003 10.32C117.867 9.44 119.099 9 120.699 9C121.243 9 121.763 9.056 122.259 9.168C122.771 9.28 123.203 9.456 123.555 9.696L122.571 12.408C122.363 12.264 122.131 12.152 121.875 12.072C121.619 11.992 121.347 11.952 121.059 11.952C120.515 11.952 120.091 12.112 119.787 12.432C119.499 12.736 119.355 13.2 119.355 13.824V15.024L119.451 16.632V27H115.707ZM113.715 17.256V14.376H122.667V17.256H113.715ZM125.176 27V13.8C125.176 12.344 125.608 11.184 126.472 10.32C127.336 9.44 128.568 9 130.168 9C130.712 9 131.232 9.056 131.728 9.168C132.24 9.28 132.672 9.456 133.024 9.696L132.04 12.408C131.832 12.264 131.6 12.152 131.344 12.072C131.088 11.992 130.816 11.952 130.528 11.952C129.984 11.952 129.56 12.112 129.256 12.432C128.968 12.736 128.824 13.2 128.824 13.824V15.024L128.92 16.632V27H125.176ZM123.184 17.256V14.376H132.136V17.256H123.184Z" fill="white"/>
    <defs>
        <clipPath id="clip0_481_4056">
            <rect width="38" height="36" fill="white"/>
        </clipPath>
    </defs>
</svg>
