<svg width="238" height="70" viewBox="0 0 238 70" fill="none" xmlns="http://www.w3.org/2000/svg">
    <rect x="169.5" y="1.5" width="67" height="67" rx="33.5" fill="#EBEBEB"/>
    <path d="M208.907 45.6313H197.072V24.3688H208.907V45.6313Z" fill="#7375CF"/>
    <path d="M197.837 35C197.837 30.6906 199.85 26.8406 203 24.3688C200.703 22.5531 197.794 21.4813 194.644 21.4813C187.184 21.4813 181.125 27.5406 181.125 35C181.125 42.4594 187.184 48.5188 194.644 48.5188C197.794 48.5188 200.703 47.4469 203 45.6313C199.85 43.1594 197.837 39.3094 197.837 35Z" fill="#EB001B"/>
    <path d="M224.875 35C224.875 42.4594 218.816 48.5188 211.356 48.5188C208.206 48.5188 205.297 47.4469 203 45.6313C206.15 43.1594 208.162 39.3094 208.162 35C208.162 30.6906 206.15 26.8406 203 24.3688C205.297 22.5531 208.206 21.4813 211.356 21.4813C218.816 21.4813 224.875 27.5406 224.875 35Z" fill="#00A2E5"/>
    <rect x="169.5" y="1.5" width="67" height="67" rx="33.5" stroke="white" stroke-width="3"/>
    <rect x="113.5" y="1.5" width="67" height="67" rx="33.5" fill="#F6F6F6"/>
    <path d="M152.902 24.3645H141.062V45.6353H152.902V24.3645Z" fill="#FF5A00"/>
    <path d="M141.851 35C141.851 30.6784 143.882 26.8429 147 24.3646C144.706 22.5607 141.811 21.4705 138.655 21.4705C131.176 21.4705 125.125 27.5215 125.125 35C125.125 42.4785 131.176 48.5296 138.655 48.5296C141.811 48.5296 144.706 47.4393 147 45.6354C143.878 43.1922 141.851 39.3216 141.851 35Z" fill="#EB001B"/>
    <path d="M168.875 35C168.875 42.4785 162.824 48.5296 155.345 48.5296C152.189 48.5296 149.294 47.4393 147 45.6354C150.157 43.1528 152.149 39.3216 152.149 35C152.149 30.6784 150.117 26.8429 147 24.3646C149.29 22.5607 152.184 21.4705 155.341 21.4705C162.824 21.4705 168.875 27.5609 168.875 35Z" fill="#F79E1B"/>
    <rect x="113.5" y="1.5" width="67" height="67" rx="33.5" stroke="white" stroke-width="3"/>
    <circle cx="91" cy="35" r="33.5" fill="#1434CB" stroke="white" stroke-width="3"/>
    <path d="M98.0113 25.666C94.4493 25.666 91.2661 27.6538 91.2661 31.3263C91.2661 35.538 96.9116 35.8289 96.9116 37.9447C96.9116 38.8356 95.9633 39.6331 94.3437 39.6331C92.0451 39.6331 90.3271 38.5188 90.3271 38.5188L89.592 42.2247C89.592 42.2247 91.5711 43.166 94.1986 43.166C98.0931 43.166 101.158 41.0807 101.158 37.3453C101.158 32.8949 95.4885 32.6127 95.4885 30.6488C95.4885 29.9509 96.2669 29.1863 97.8819 29.1863C99.7041 29.1863 101.191 29.9967 101.191 29.9967L101.91 26.4173C101.91 26.4173 100.293 25.666 98.0113 25.666ZM65.4222 25.9362L65.3359 26.4764C65.3359 26.4764 66.8345 26.7717 68.1842 27.3607C69.922 28.0361 70.0458 28.4293 70.3385 29.6506L73.5278 42.8874H77.8031L84.3895 25.9362H80.124L75.8919 37.4614L74.1649 27.6921C74.0065 26.574 73.2043 25.9362 72.2223 25.9362H65.4222ZM86.1048 25.9362L82.7586 42.8874H86.8261L90.1605 25.9362H86.1048ZM108.791 25.9362C107.81 25.9362 107.29 26.5015 106.909 27.4895L100.95 42.8874H105.215L106.04 40.3211H111.237L111.739 42.8874H115.503L112.219 25.9362H108.791ZM109.345 30.5159L110.61 36.8768H107.223L109.345 30.5159Z" fill="white"/>
    <rect x="1.5" y="1.5" width="67" height="67" rx="33.5" fill="#F7F7F7"/>
    <path fill-rule="evenodd" clip-rule="evenodd" d="M15.8969 28.1482C16.3372 28.1455 17.6456 28.0227 18.1998 29.9712C18.5732 31.2837 19.1679 33.4336 19.9839 36.421H20.3163C21.1914 33.2715 21.7926 31.1215 22.1198 29.9712C22.6798 28.0024 24.0798 28.1482 24.6398 28.1482L28.9604 28.1483V42.1482H24.5568V33.8978H24.2615L21.8067 42.1482H18.4935L16.0387 33.8917H15.7434V42.1482H11.3398V28.1483L15.8969 28.1482ZM35.2839 28.1483V36.4048H35.6352L38.6212 29.6155C39.2008 28.2644 40.4362 28.1483 40.4362 28.1483H44.6976V42.1482H40.202V33.8917H39.8507L36.9233 40.681C36.3436 42.026 35.0497 42.1482 35.0497 42.1482H30.7883V28.1483H35.2839ZM60.2363 34.8011C59.6092 36.6522 57.6399 37.9779 55.4597 37.9779H50.7452V42.1482H46.4701V34.8011H60.2363Z" fill="#0F754E"/>
    <path fill-rule="evenodd" clip-rule="evenodd" d="M55.6655 28.1478H46.2456C46.4698 31.2646 49.0466 33.9329 51.7141 33.9329H60.533C61.042 31.3424 59.29 28.1478 55.6655 28.1478Z" fill="url(#paint0_linear_481_4206)"/>
    <rect x="1.5" y="1.5" width="67" height="67" rx="33.5" stroke="white" stroke-width="3"/>
    <defs>
        <linearGradient id="paint0_linear_481_4206" x1="60.6195" y1="31.7869" x2="46.2456" y2="31.7869" gradientUnits="userSpaceOnUse">
            <stop stop-color="#1F5CD7"/>
            <stop offset="1" stop-color="#02AEFF"/>
        </linearGradient>
    </defs>
</svg>
