<svg width="238" height="70" viewBox="0 0 238 70" fill="none" xmlns="http://www.w3.org/2000/svg">
    <circle cx="203" cy="35" r="33.5" fill="black" stroke="white" stroke-width="3"/>
    <g clip-path="url(#clip0_481_4228)">
        <path d="M178.718 32.3351V35.0171L185.994 34.2213V31.3184L178.718 32.3351ZM181.04 35.1803V44.3707H183.704V34.9096L181.04 35.1803ZM186.977 31.1811V44.3707H189.784V30.7887L186.977 31.1811ZM190.307 30.7156V33.7497L194.36 33.3063V30.1493L190.307 30.7156ZM190.307 36.008V39.0974L192.967 38.9531V35.7803L190.307 36.008ZM190.307 41.3243V44.3707H194.36V41.2027L190.307 41.3243ZM204.842 28.6797V44.3707H208.521V28.1654L204.842 28.6797ZM209.208 28.0693V31.6786L214.571 31.0923V27.3197L209.208 28.0693ZM209.208 34.393V38.0691L212.723 37.8783V34.0937L209.208 34.393ZM209.208 40.7561V44.3707H214.571V40.5951L209.208 40.7561ZM195.432 29.9991V44.3707H198.63V29.5521L195.432 29.9991ZM199.226 41.0567V44.3706H203.867V40.9174L199.226 41.0567ZM226.593 27.1423C225.43 26.0497 223.725 25.6016 221.86 25.868V29.8711C222.615 29.8294 223.227 30.1081 223.5 30.6693C223.93 31.554 223.486 32.8814 222.438 34.1113C220.821 36.0091 216.52 39.8937 216.52 39.8937L222.694 39.6919C226.466 36.027 227.821 33.8024 228.064 31.026C228.192 29.5571 227.656 28.1419 226.593 27.1423ZM228.282 44.3707V40.182L215.759 40.5571M215.759 40.557L215.76 44.3706H228.282M221.14 25.9579C217.502 26.7283 215.715 29.3897 215.922 33.7324L219.8 33.3901C219.624 30.9367 220.378 30.3547 221.142 30.0347L221.14 25.9579Z" fill="white"/>
    </g>
    <circle cx="147" cy="35" r="33.5" fill="#E30613" stroke="white" stroke-width="3"/>
    <path d="M137.725 21.6041L137.727 21.6005C139.297 18.9357 141 16.8721 142.651 15.4922C144.321 14.0968 145.815 13.5 146.999 13.5C148.177 13.5 149.668 14.0958 151.342 15.4928C152.996 16.8734 154.707 18.9378 156.292 21.6034C159.555 27.1324 161.5 33.9764 161.5 39.8558C161.5 44.1233 160.327 48.3146 157.954 51.4014C155.619 54.4397 152.058 56.5 147 56.5C141.935 56.5 138.374 54.4394 136.041 51.4018C133.67 48.3153 132.5 44.1241 132.5 39.8558C132.5 33.976 134.447 27.132 137.725 21.6041Z" fill="white" stroke="white" stroke-width="3"/>
    <circle cx="91" cy="35" r="33.5" fill="white" stroke="white" stroke-width="3"/>
    <path d="M84.8661 29.3848C82.6573 29.3848 80.8636 27.5937 80.8636 25.3875C80.8636 23.1764 82.6573 21.3853 84.8661 21.3853C87.075 21.3853 88.8638 23.1764 88.8638 25.3875C88.8638 27.5937 87.075 29.3848 84.8661 29.3848ZM91.001 3C73.3229 3 59 17.3239 59 34.9977C59 50.3345 69.7947 63.1513 84.1966 66.2716V37.5571L84.1986 37.5552C84.2308 36.1692 85.3351 35.0526 86.7088 35.0007V34.9987H88.0406H90.7509C90.9387 34.9987 91.0919 34.8505 91.1018 34.6652L91.1038 3.00573M113.053 52.4532C110.847 52.4532 109.053 50.6621 109.053 48.451C109.053 46.2473 110.847 44.4562 113.053 44.4562C115.26 44.4562 117.053 46.2473 117.053 48.451C117.053 50.6621 115.26 52.4532 113.053 52.4532ZM103.677 52.4532C101.47 52.4532 99.6792 50.6621 99.6792 48.451C99.6792 46.2473 101.47 44.4562 103.677 44.4562C105.886 44.4562 107.677 46.2473 107.677 48.451C107.677 50.6621 105.886 52.4532 103.677 52.4532ZM94.2955 52.4532C92.0891 52.4532 90.2929 50.6621 90.2929 48.451C90.2929 46.2473 92.0891 44.4562 94.2955 44.4562C96.5068 44.4562 98.2981 46.2473 98.2981 48.451C98.2981 50.6621 96.5068 52.4532 94.2955 52.4532ZM94.9502 3.24116V34.9968V36.232V36.2543L94.9423 36.2622C94.9304 37.6902 93.7662 38.8439 92.3332 38.8439H91.1028H88.3949C88.1972 38.8439 88.0391 39.002 88.0391 39.1972V66.8617C89.015 66.9506 89.9984 67 90.999 67C108.675 67 123 52.6712 123 34.9974C123 18.665 110.76 5.18849 94.9497 3.24175" fill="#00B956"/>
    <path d="M0 35.0006C0 54.3321 15.6678 70 35.0025 70C54.3285 70 70 54.3321 70 35.0006C70 15.6679 54.3285 0 35.0025 0C15.6678 0 0 15.6679 0 35.0006Z" fill="url(#paint0_linear_481_4228)"/>
    <path d="M3 35.0006C3 52.675 17.3248 67 35.0023 67C52.6717 67 67 52.675 67 35.0006C67 17.325 52.6717 3 35.0023 3C17.3248 3 3 17.325 3 35.0006Z" fill="url(#paint1_linear_481_4228)"/>
    <mask id="mask0_481_4228" style="mask-type:alpha" maskUnits="userSpaceOnUse" x="0" y="0" width="70" height="70">
        <path d="M0 35.0006C0 54.3321 15.6678 70 35.0025 70C54.3285 70 70 54.3321 70 35.0006C70 15.6679 54.3285 0 35.0025 0C15.6678 0 0 15.6679 0 35.0006Z" fill="url(#paint2_linear_481_4228)"/>
    </mask>
    <g mask="url(#mask0_481_4228)">
        <path d="M69.995 27.5364H0V42.518H69.995V27.5364ZM69.995 57.4946H0V69.9911H69.995V57.4946ZM69.995 12.5586H0V0.00480652H69.995V12.5586Z" fill="black"/>
    </g>
    <circle cx="35" cy="35" r="33.5" stroke="white" stroke-width="3"/>
    <defs>
        <linearGradient id="paint0_linear_481_4228" x1="0.00124555" y1="35.0243" x2="69.995" y2="35.0243" gradientUnits="userSpaceOnUse">
            <stop stop-color="#FAA61A"/>
            <stop offset="1" stop-color="#FFE100"/>
        </linearGradient>
        <linearGradient id="paint1_linear_481_4228" x1="3.00114" y1="35.0222" x2="66.9954" y2="35.0222" gradientUnits="userSpaceOnUse">
            <stop stop-color="#FAA61A"/>
            <stop offset="1" stop-color="#FFE100"/>
        </linearGradient>
        <linearGradient id="paint2_linear_481_4228" x1="0.00124555" y1="35.0243" x2="69.995" y2="35.0243" gradientUnits="userSpaceOnUse">
            <stop stop-color="#FAA61A"/>
            <stop offset="1" stop-color="#FFE100"/>
        </linearGradient>
        <clipPath id="clip0_481_4228">
            <rect width="51" height="20" fill="white" transform="translate(178 25)"/>
        </clipPath>
    </defs>
</svg>
