<svg width="238" height="70" viewBox="0 0 238 70" fill="none" xmlns="http://www.w3.org/2000/svg">
    <rect x="169.5" y="1.5" width="67" height="67" rx="33.5" fill="#CBC6C6"/>
    <path d="M191.157 41.8298L188.125 43.007L189.587 37.1441L192.655 35.9116L197.078 18H207.977L204.749 31.1665L207.745 29.9531L206.3 35.7969L203.268 37.0102L201.466 44.4116H217.875L216.02 52H188.66L191.157 41.8298Z" fill="white"/>
    <rect x="169.5" y="1.5" width="67" height="67" rx="33.5" stroke="white" stroke-width="3"/>
    <circle cx="147" cy="35" r="34" fill="#627EEA" stroke="white" stroke-width="2"/>
    <path d="M146.996 12.8993V29.2388L160.806 35.4099L146.996 12.8993Z" fill="white" fill-opacity="0.602"/>
    <path d="M146.996 12.8993L133.184 35.4099L146.996 29.2388V12.8993Z" fill="white"/>
    <path d="M146.996 45.9983V57.1007L160.816 37.9814L146.996 45.9983Z" fill="white" fill-opacity="0.602"/>
    <path d="M146.996 57.1007V45.9964L133.184 37.9814L146.996 57.1007Z" fill="white"/>
    <path d="M146.996 43.4286L160.806 35.4099L146.996 29.2425V43.4286Z" fill="white" fill-opacity="0.2"/>
    <path d="M133.184 35.4099L146.996 43.4286V29.2425L133.184 35.4099Z" fill="white" fill-opacity="0.602"/>
    <circle cx="91" cy="35" r="33.5" fill="#26A17B" stroke="white" stroke-width="3"/>
    <path d="M94.7025 36.2404V36.2357C94.4947 36.25 93.4216 36.312 91.0339 36.312C89.1246 36.312 87.7858 36.2595 87.3121 36.2357V36.2404C79.97 35.9208 74.4936 34.6612 74.4936 33.1489C74.4936 31.6413 79.9748 30.377 87.3121 30.0573V34.9857C87.7906 35.0191 89.1681 35.1002 91.0677 35.1002C93.3491 35.1002 94.4898 35.0048 94.7025 34.9857V30.0621C102.03 30.3865 107.492 31.646 107.492 33.1536C107.492 34.6612 102.025 35.9208 94.7025 36.2452M94.7025 29.5516V25.1433H104.925V18.421H77.094V25.1433H87.3169V29.5516C79.0081 29.9285 72.7632 31.5506 72.7632 33.4971C72.7632 35.4437 79.0129 37.0658 87.3169 37.4475V51.5789H94.7074V37.4475C103.002 37.0706 109.237 35.4485 109.237 33.5019C109.237 31.5601 103.002 29.9333 94.7074 29.5564" fill="white"/>
    <rect x="1.5" y="1.5" width="67" height="67" rx="33.5" fill="#F7931A"/>
    <path d="M49.9241 31.277C50.5283 27.2844 47.4554 25.1376 43.2568 23.7051L44.6191 18.2954L41.2942 17.4763L39.9665 22.7432C39.0929 22.526 38.1963 22.3241 37.3015 22.1222L38.6388 16.821L35.3139 16L33.9516 21.4079C33.2281 21.2441 32.5161 21.0841 31.8273 20.9126L31.8311 20.8955L27.2439 19.7621L26.3588 23.2785C26.3588 23.2785 28.8275 23.8385 28.7756 23.8728C30.1225 24.2061 30.3649 25.0881 30.3245 25.7891L28.7736 31.9513C28.866 31.9741 28.9853 32.0084 29.12 32.0599L28.7679 31.9741L26.5936 40.6069C26.4281 41.0108 26.0105 41.6184 25.0677 41.3879C25.1023 41.4356 22.6509 40.7917 22.6509 40.7917L21 44.5595L25.3294 45.6282C26.1337 45.8282 26.9226 46.0377 27.698 46.2339L26.3222 51.7046L29.6453 52.5237L31.0076 47.1139C31.9158 47.3559 32.7971 47.5806 33.6591 47.794L32.3006 53.1809L35.6256 54L37.0014 48.5407C42.6738 49.6036 46.9378 49.175 48.733 44.0966C50.18 40.0088 48.6618 37.6487 45.6774 36.1115C47.8517 35.6162 49.4873 34.2009 49.9241 31.277ZM42.3236 41.8261C41.298 45.9158 34.3422 43.7042 32.087 43.1499L33.915 35.902C36.1701 36.4601 43.3992 37.563 42.3236 41.8261ZM43.353 31.2179C42.416 34.9381 36.6281 33.0466 34.752 32.5837L36.4068 26.0119C38.2829 26.4748 44.3305 27.3377 43.353 31.2179Z" fill="white"/>
    <rect x="1.5" y="1.5" width="67" height="67" rx="33.5" stroke="white" stroke-width="3"/>
</svg>
