<svg width="126" height="70" viewBox="0 0 126 70" fill="none" xmlns="http://www.w3.org/2000/svg">
    <rect x="57.5" y="1.5" width="67" height="67" rx="33.5" fill="#8B3FFD"/>
    <path d="M96.2495 20.125C87.4776 20.125 80.5 27.2025 80.5 35.875C80.5 44.6472 87.5772 51.625 96.2495 51.625C104.922 51.625 111.999 44.5474 111.999 35.875C112.099 27.2025 104.922 20.125 96.2495 20.125ZM96.2495 41.7563C93.0597 41.7563 90.3683 39.0649 90.3683 35.875C90.3683 32.6851 93.0597 29.9937 96.2495 29.9937C99.4392 29.9937 102.131 32.6851 102.131 35.875C102.131 39.0649 99.5389 41.7563 96.2495 41.7563Z" fill="white"/>
    <path d="M80.5 23.625V48.125H75.0872L68.25 23.625H80.5Z" fill="white"/>
    <rect x="57.5" y="1.5" width="67" height="67" rx="33.5" stroke="white" stroke-width="3"/>
    <rect x="1.5" y="1.5" width="67" height="67" rx="33.5" fill="#FD8C00"/>
    <path d="M50.7846 44.1081C51.5888 44.4175 51.8981 45.6223 51.9596 46.1478C52.0836 47.1067 51.8059 47.4776 51.4965 47.4776C51.1871 47.4776 50.7538 47.1067 50.2907 46.365C49.8267 45.6223 49.6412 44.7883 49.8891 44.355C50.0429 44.0764 50.382 43.9534 50.7846 44.1081ZM46.0863 47.6015C46.5812 47.6015 47.1374 47.8177 47.6322 48.25C48.5901 49.0542 48.8688 49.9814 48.374 50.6616C48.0953 51.0017 47.6322 51.2179 47.1067 51.2179C46.5812 51.2179 46.0249 51.0325 45.654 50.6923C44.7883 49.9506 44.5414 48.7131 45.0967 48.0339C45.3139 47.7552 45.654 47.6015 46.0863 47.6015ZM35.2679 56.5349C23.5204 56.5349 14 47.0135 14 35.267C14 23.5204 23.5214 14 35.267 14C47.0135 14 56.5349 23.5214 56.5349 35.267C56.5349 39.2542 55.4223 42.9955 53.5372 46.1795C53.4748 46.2718 53.3201 46.241 53.2893 46.1171C52.5476 40.8933 49.3636 38.0177 44.7268 37.153C44.3243 37.0905 44.2628 36.8436 44.7883 36.7821C46.2103 36.6582 48.2193 36.6889 49.2704 36.8743C49.3319 36.3488 49.3636 35.7925 49.3636 35.2362C49.3636 27.4769 43.057 21.1703 35.2977 21.1703C27.5394 21.1703 21.2328 27.4769 21.2328 35.2362C21.2328 42.9955 27.5394 49.3021 35.2987 49.3021H35.9472C35.7269 48.0471 35.6335 46.773 35.6686 45.4993C35.7003 44.6336 35.8857 44.5097 36.2566 45.1899C38.2041 48.5594 40.9865 51.5888 46.4265 52.7945C50.8778 53.7841 55.3291 54.9275 60.1205 61.0169C60.5529 61.5425 59.9043 62.0988 59.4095 61.6664C54.5259 57.3381 50.0746 55.9161 46.0249 55.9161C41.4803 55.9478 38.3905 56.5349 35.2679 56.5349Z" fill="white"/>
    <rect x="1.5" y="1.5" width="67" height="67" rx="33.5" stroke="white" stroke-width="3"/>
</svg>
