<svg width="70" height="70" viewBox="0 0 70 70" fill="none" xmlns="http://www.w3.org/2000/svg">
    <circle cx="35" cy="35" r="33.5" fill="#27AE60" stroke="white" stroke-width="3"/>
    <path d="M36.2103 33.3342V38.6712H46.9756C45.4695 43.8724 40.8656 47.6799 35.4402 47.6799C28.7824 47.6799 23.3741 42.0028 23.3741 35.017C23.3741 28.0312 28.7824 22.3541 35.4402 22.3541C39.8386 22.3541 43.8949 24.8697 46.0172 28.932L50.7922 26.4674C47.7458 20.6374 41.8581 17 35.4402 17C25.8215 17 18 25.0737 18 35C18 44.9263 25.8215 53 35.4402 53C40.181 53 44.4768 51.0452 47.626 47.8667V52.5069H53V33.3172H36.2103V33.3342Z" fill="white"/>
</svg>
