<svg width="24" height="24" viewBox="0 0 24 24" fill="none" xmlns="http://www.w3.org/2000/svg">
    <path d="M12 22C17.5228 22 22 17.5228 22 12C22 6.47715 17.5228 2 12 2C6.47715 2 2 6.47715 2 12C2 17.5228 6.47715 22 12 22Z" fill="white"/>
    <path d="M18.6704 12.0001C18.6704 11.1886 18.0141 10.5443 17.2146 10.5443C16.8208 10.5443 16.4628 10.6994 16.2003 10.95C15.1979 10.234 13.8256 9.7686 12.2981 9.70893L12.9664 6.58244L15.1382 7.04783C15.1621 7.59676 15.6156 8.03829 16.1764 8.03829C16.7492 8.03829 17.2146 7.57289 17.2146 7.0001C17.2146 6.42731 16.7492 5.96191 16.1764 5.96191C15.7707 5.96191 15.4127 6.20058 15.2456 6.54664L12.8232 6.03351C12.7516 6.02158 12.68 6.03351 12.6323 6.06931C12.5726 6.10511 12.5368 6.16478 12.5249 6.23638L11.785 9.72086C10.2337 9.7686 8.83751 10.234 7.82319 10.9619C7.56067 10.7113 7.20267 10.5562 6.80888 10.5562C5.99742 10.5562 5.35303 11.2125 5.35303 12.012C5.35303 12.6087 5.71102 13.1099 6.21222 13.3366C6.18835 13.4798 6.17642 13.623 6.17642 13.7781C6.17642 16.0216 8.78978 17.8474 12.0117 17.8474C15.2337 17.8474 17.8471 16.0335 17.8471 13.7781C17.8471 13.6349 17.8351 13.4798 17.8113 13.3366C18.3125 13.1099 18.6704 12.5968 18.6704 12.0001ZM8.67045 13.0383C8.67045 12.4655 9.13584 12.0001 9.70864 12.0001C10.2814 12.0001 10.7468 12.4655 10.7468 13.0383C10.7468 13.6111 10.2814 14.0765 9.70864 14.0765C9.13584 14.0884 8.67045 13.6111 8.67045 13.0383ZM14.4819 15.7949C13.7659 16.5108 12.4055 16.5586 12.0117 16.5586C11.606 16.5586 10.2456 16.4989 9.54157 15.7949C9.43417 15.6875 9.43417 15.5204 9.54157 15.413C9.64897 15.3056 9.81603 15.3056 9.92343 15.413C10.3769 15.8664 11.3315 16.0216 12.0117 16.0216C12.6919 16.0216 13.6585 15.8664 14.1 15.413C14.2074 15.3056 14.3745 15.3056 14.4819 15.413C14.5774 15.5204 14.5774 15.6875 14.4819 15.7949ZM14.291 14.0884C13.7182 14.0884 13.2528 13.623 13.2528 13.0502C13.2528 12.4774 13.7182 12.012 14.291 12.012C14.8638 12.012 15.3292 12.4774 15.3292 13.0502C15.3292 13.6111 14.8638 14.0884 14.291 14.0884Z" fill="#07122C"/>
</svg>
