<svg width="24" height="24" viewBox="0 0 24 24" fill="none" xmlns="http://www.w3.org/2000/svg">
    <path d="M19.6361 5.34006C18.212 4.71406 16.6893 4.25911 15.0973 4.00006C14.9018 4.33216 14.6734 4.77883 14.5159 5.13416C12.8236 4.89505 11.1469 4.89505 9.48573 5.13416C9.32828 4.77883 9.09468 4.33216 8.89742 4.00006C7.30374 4.25911 5.77928 4.71573 4.35518 5.34337C1.48276 9.42142 0.70409 13.3982 1.09342 17.3185C2.99856 18.6551 4.84488 19.4671 6.66003 19.9984C7.1082 19.4189 7.50791 18.8029 7.85225 18.1537C7.19644 17.9195 6.56832 17.6306 5.97482 17.2952C6.13227 17.1856 6.28628 17.071 6.43508 16.9532C10.055 18.5439 13.9882 18.5439 17.5648 16.9532C17.7154 17.071 17.8694 17.1856 18.0251 17.2952C17.4299 17.6323 16.8 17.9212 16.1442 18.1553C16.4886 18.8029 16.8865 19.4206 17.3364 20.0001C19.1533 19.4687 21.0014 18.6568 22.9065 17.3185C23.3633 12.7738 22.1261 8.83361 19.6361 5.34006ZM8.34541 14.9075C7.25874 14.9075 6.36759 13.9544 6.36759 12.7938C6.36759 11.6331 7.23972 10.6784 8.34541 10.6784C9.45114 10.6784 10.3423 11.6314 10.3232 12.7938C10.325 13.9544 9.45114 14.9075 8.34541 14.9075ZM15.6545 14.9075C14.5678 14.9075 13.6767 13.9544 13.6767 12.7938C13.6767 11.6331 14.5488 10.6784 15.6545 10.6784C16.7602 10.6784 17.6514 11.6314 17.6323 12.7938C17.6323 13.9544 16.7602 14.9075 15.6545 14.9075Z" fill="black"/>
</svg>
