<svg width="24" height="24" viewBox="0 0 24 24" fill="none" xmlns="http://www.w3.org/2000/svg">
    <path d="M12 22.0001C17.5228 22.0001 22 17.5229 22 12.0001C22 6.47721 17.5228 2.00006 12 2.00006C6.47715 2.00006 2 6.47721 2 12.0001C2 17.5229 6.47715 22.0001 12 22.0001Z" fill="black"/>
    <path d="M18.6709 12C18.6709 11.1886 18.0146 10.5442 17.2151 10.5442C16.8213 10.5442 16.4633 10.6993 16.2008 10.9499C15.1984 10.2339 13.8261 9.76854 12.2986 9.70887L12.9669 6.58238L15.1387 7.04777C15.1626 7.5967 15.616 8.03823 16.1769 8.03823C16.7497 8.03823 17.2151 7.57283 17.2151 7.00004C17.2151 6.42725 16.7497 5.96185 16.1769 5.96185C15.7712 5.96185 15.4132 6.20052 15.2461 6.54658L12.8237 6.03345C12.7521 6.02152 12.6805 6.03345 12.6328 6.06925C12.5731 6.10505 12.5373 6.16472 12.5254 6.23632L11.7855 9.7208C10.2342 9.76854 8.838 10.2339 7.82368 10.9619C7.56115 10.7113 7.20316 10.5561 6.80936 10.5561C5.99791 10.5561 5.35352 11.2124 5.35352 12.012C5.35352 12.6086 5.71151 13.1098 6.2127 13.3366C6.18884 13.4798 6.1769 13.623 6.1769 13.7781C6.1769 16.0215 8.79027 17.8473 12.0122 17.8473C15.2342 17.8473 17.8475 16.0335 17.8475 13.7781C17.8475 13.6349 17.8356 13.4798 17.8117 13.3366C18.3129 13.1098 18.6709 12.5967 18.6709 12ZM8.67094 13.0382C8.67094 12.4654 9.13633 12 9.70912 12C10.2819 12 10.7473 12.4654 10.7473 13.0382C10.7473 13.611 10.2819 14.0764 9.70912 14.0764C9.13633 14.0883 8.67094 13.611 8.67094 13.0382ZM14.4824 15.7948C13.7664 16.5108 12.406 16.5585 12.0122 16.5585C11.6065 16.5585 10.2461 16.4988 9.54206 15.7948C9.43466 15.6874 9.43466 15.5203 9.54206 15.4129C9.64946 15.3055 9.81652 15.3055 9.92392 15.4129C10.3774 15.8664 11.332 16.0215 12.0122 16.0215C12.6924 16.0215 13.659 15.8664 14.1005 15.4129C14.2079 15.3055 14.375 15.3055 14.4824 15.4129C14.5779 15.5203 14.5779 15.6874 14.4824 15.7948ZM14.2915 14.0883C13.7187 14.0883 13.2533 13.623 13.2533 13.0502C13.2533 12.4774 13.7187 12.012 14.2915 12.012C14.8643 12.012 15.3296 12.4774 15.3296 13.0502C15.3296 13.611 14.8643 14.0883 14.2915 14.0883Z" fill="white"/>
</svg>
