<svg width="24" height="24" viewBox="0 0 24 24" fill="none" xmlns="http://www.w3.org/2000/svg">
    <path d="M13.4093 12C13.4093 15.3137 10.6314 18.0001 7.20454 18.0001C3.77771 18.0001 1 15.3145 1 12C1 8.68546 3.77792 6.00006 7.20454 6.00006C10.6312 6.00006 13.4093 8.68627 13.4093 12ZM20.216 12C20.216 15.1194 18.8269 17.648 17.1136 17.648C15.4003 17.648 14.0112 15.1186 14.0112 12C14.0112 8.88133 15.4003 6.35195 17.1136 6.35195C18.8269 6.35195 20.216 8.88133 20.216 12ZM23 12C23 14.7948 22.5114 17.0603 21.9088 17.0603C21.3063 17.0603 20.8177 14.794 20.8177 12C20.8177 9.2059 21.3063 6.93958 21.9091 6.93958C22.5118 6.93958 23 9.2053 23 12Z" fill="black"/>
</svg>
