<svg width="24" height="24" viewBox="0 0 24 24" fill="none" xmlns="http://www.w3.org/2000/svg">
    <path d="M13.4093 11.9999C13.4093 15.3136 10.6314 18 7.20454 18C3.77771 18 1 15.3144 1 11.9999C1 8.6854 3.77792 6 7.20454 6C10.6312 6 13.4093 8.6862 13.4093 11.9999ZM20.216 11.9999C20.216 15.1193 18.8269 17.6479 17.1136 17.6479C15.4003 17.6479 14.0112 15.1185 14.0112 11.9999C14.0112 8.88127 15.4003 6.35189 17.1136 6.35189C18.8269 6.35189 20.216 8.88127 20.216 11.9999ZM23 11.9999C23 14.7948 22.5114 17.0603 21.9088 17.0603C21.3063 17.0603 20.8177 14.794 20.8177 11.9999C20.8177 9.20584 21.3063 6.93951 21.9091 6.93951C22.5118 6.93951 23 9.20523 23 11.9999Z" fill="white"/>
</svg>
