<svg width="24" height="24" viewBox="0 0 24 24" fill="none" xmlns="http://www.w3.org/2000/svg">
    <path d="M12 22.0001C17.5228 22.0001 22 17.5229 22 12.0001C22 6.47721 17.5228 2.00006 12 2.00006C6.47715 2.00006 2 6.47721 2 12.0001C2 17.5229 6.47715 22.0001 12 22.0001Z" fill="black"/>
    <path fill-rule="evenodd" clip-rule="evenodd" d="M6.52586 11.8946C9.44107 10.6245 11.385 9.7872 12.3576 9.38264C15.1348 8.22755 15.7118 8.0269 16.0879 8.02027C16.1707 8.01882 16.3556 8.03932 16.4754 8.13653C16.5766 8.21862 16.6044 8.32952 16.6178 8.40735C16.6311 8.48517 16.6477 8.66247 16.6344 8.80102C16.4839 10.3823 15.8328 14.2195 15.5015 15.9905C15.3614 16.7398 15.0854 16.9912 14.8181 17.0158C14.2374 17.0692 13.7964 16.6319 13.2339 16.2633C12.3539 15.6863 11.8566 15.3272 11.0023 14.7642C10.015 14.1136 10.655 13.756 11.2177 13.1716C11.3649 13.0186 13.9236 10.6913 13.9731 10.4802C13.9794 10.4538 13.9851 10.3553 13.9266 10.3034C13.8681 10.2514 13.7819 10.2692 13.7195 10.2833C13.6313 10.3034 12.2253 11.2327 9.50149 13.0713C9.10239 13.3453 8.74091 13.4789 8.41703 13.4719C8.05998 13.4642 7.37315 13.27 6.86257 13.104C6.23632 12.9005 5.73859 12.7928 5.78193 12.4471C5.8045 12.267 6.05248 12.0828 6.52586 11.8946Z" fill="white"/>
</svg>
