<svg width="24" height="24" viewBox="0 0 24 24" fill="none" xmlns="http://www.w3.org/2000/svg">
    <path d="M12 22C17.5228 22 22 17.5228 22 12C22 6.47715 17.5228 2 12 2C6.47715 2 2 6.47715 2 12C2 17.5228 6.47715 22 12 22Z" fill="white"/>
    <path fill-rule="evenodd" clip-rule="evenodd" d="M6.52684 11.8944C9.44205 10.6243 11.386 9.78702 12.3586 9.38246C15.1357 8.22737 15.7127 8.02672 16.0889 8.02009C16.1717 8.01863 16.3566 8.03913 16.4764 8.13635C16.5776 8.21844 16.6054 8.32933 16.6187 8.40717C16.6321 8.48499 16.6487 8.66229 16.6354 8.80083C16.4849 10.3821 15.8337 14.2193 15.5025 15.9903C15.3623 16.7397 15.0863 16.991 14.8191 17.0156C14.2383 17.069 13.7974 16.6317 13.2349 16.2631C12.3548 15.6862 11.8576 15.327 11.0032 14.764C10.016 14.1134 10.656 13.7558 11.2187 13.1714C11.3659 13.0184 13.9246 10.6912 13.9741 10.48C13.9803 10.4536 13.9861 10.3552 13.9276 10.3032C13.8691 10.2512 13.7828 10.269 13.7205 10.2832C13.6322 10.3032 12.2262 11.2325 9.50246 13.0712C9.10337 13.3452 8.74189 13.4787 8.418 13.4717C8.06095 13.464 7.37413 13.2698 6.86355 13.1038C6.2373 12.9003 5.73956 12.7927 5.7829 12.4469C5.80548 12.2668 6.05345 12.0827 6.52684 11.8944Z" fill="#07122C"/>
</svg>
