<svg width="24" height="24" viewBox="0 0 24 24" fill="none" xmlns="http://www.w3.org/2000/svg">
    <path d="M20.7477 7.48111C20.7611 7.6764 20.7611 7.87169 20.7611 8.06878C20.7611 14.0741 16.2208 21.0001 7.91863 21.0001V20.9965C5.46614 21.0001 3.06459 20.2927 1 18.959C1.35661 19.0022 1.71501 19.0238 2.0743 19.0247C4.10672 19.0265 6.08105 18.3398 7.67999 17.0754C5.74857 17.0385 4.05489 15.7705 3.46321 13.9193C4.13979 14.0507 4.83693 14.0237 5.501 13.841C3.39529 13.4126 1.88036 11.5498 1.88036 9.38629V9.3287C2.50778 9.68058 3.21028 9.87586 3.92886 9.89746C1.9456 8.56285 1.33427 5.90621 2.53191 3.82914C4.82352 6.66847 8.20463 8.39456 11.8342 8.57725C11.4704 6.99874 11.9674 5.34465 13.14 4.23502C14.9579 2.51433 17.8171 2.60252 19.5259 4.43211C20.5368 4.23142 21.5056 3.85794 22.3922 3.32878C22.0553 4.38081 21.3501 5.27445 20.4081 5.84232C21.3027 5.73612 22.1768 5.49494 23 5.12686C22.394 6.04121 21.6308 6.83766 20.7477 7.48111Z" fill="black"/>
</svg>
