<svg width="38" height="38" viewBox="0 0 38 38" fill="none" xmlns="http://www.w3.org/2000/svg">
    <rect width="38" height="38" rx="19" fill="#FD8C00"/>
    <path d="M27.5689 23.9445C28.0054 24.1124 28.1734 24.7665 28.2067 25.0518C28.274 25.5723 28.1233 25.7736 27.9554 25.7736C27.7874 25.7736 27.5522 25.5723 27.3008 25.1697C27.0489 24.7665 26.9482 24.3138 27.0828 24.0785C27.1662 23.9273 27.3503 23.8605 27.5689 23.9445ZM25.0184 25.8409C25.287 25.8409 25.589 25.9583 25.8576 26.193C26.3776 26.6295 26.5289 27.1328 26.2603 27.5021C26.109 27.6867 25.8576 27.8041 25.5723 27.8041C25.287 27.8041 24.985 27.7034 24.7837 27.5188C24.3138 27.1161 24.1797 26.4444 24.4812 26.0756C24.5991 25.9244 24.7837 25.8409 25.0184 25.8409ZM19.1455 30.6905C12.7683 30.6905 7.6001 25.5217 7.6001 19.145C7.6001 12.7683 12.7688 7.6001 19.145 7.6001C25.5217 7.6001 30.6905 12.7688 30.6905 19.145C30.6905 21.3095 30.0865 23.3405 29.0632 25.069C29.0293 25.1191 28.9453 25.1024 28.9286 25.0351C28.5259 22.1993 26.7975 20.6383 24.2804 20.1689C24.0618 20.135 24.0285 20.0009 24.3138 19.9675C25.0857 19.9002 26.1763 19.9169 26.7469 20.0176C26.7803 19.7323 26.7975 19.4303 26.7975 19.1283C26.7975 14.9161 23.3739 11.4926 19.1617 11.4926C14.95 11.4926 11.5265 14.9161 11.5265 19.1283C11.5265 23.3405 14.95 26.7641 19.1622 26.7641H19.5143C19.3947 26.0828 19.344 25.3912 19.363 24.6997C19.3802 24.2298 19.4809 24.1625 19.6822 24.5318C20.7395 26.3609 22.2499 28.0054 25.203 28.66C27.6195 29.1972 30.0359 29.8179 32.637 33.1236C32.8717 33.4089 32.5196 33.7109 32.251 33.4762C29.5999 31.1265 27.1834 30.3546 24.985 30.3546C22.518 30.3718 20.8406 30.6905 19.1455 30.6905Z" fill="white"/>
</svg>
